SplineFontDB: 3.0
FontName: TaameyDavidCLM-Bold
FullName: Taamey David CLM Bold
FamilyName: Taamey David CLM
Weight: Bold
Copyright: Copyright (c) 2009-2010 by Yoram Gnat (yoram.gnat@gmail.com)\nDistributed under the terms of GNU General Public License version 2(http://www.gnu.org/licenses/gpl.html). \n\nHebrew glyphs copyright 2002-2008 by Maxim Iorsh (iorsh@math.technion.ac.il).\nDistributed under the terms of GNU General Public License version 2(http://www.gnu.org/licenses/gpl.html). \n\nHebrew OpenType Layout logic copyright (c) 2003 & 2007, Ralph Hancock & John Hudson. This layout logic for Biblical Hebrew is open source software under the MIT License; for details  contact copyright holders at <license@tiro.com>.\n\nImplementation of above layout logic by Yoram Gnat (yoram.gnat@gmail.com) All rights reserved.\n\nLatin glyphs and part of punctuation copyright 1990 as an unpublished work by Bitstream Inc. \n\n\n
Version: 0.110
ItalicAngle: 0
UnderlinePosition: -170
UnderlineWidth: 70
Ascent: 1638
Descent: 410
LayerCount: 2
Layer: 0 0 "Back"  1
Layer: 1 0 "Fore"  0
XUID: [1021 594 1227166039 14964671]
FSType: 0
OS2Version: 0
OS2_WeightWidthSlopeOnly: 0
OS2_UseTypoMetrics: 1
CreationTime: 1244295734
ModificationTime: 1284281877
PfmFamily: 17
TTFWeight: 700
TTFWidth: 5
LineGap: 184
VLineGap: 0
Panose: 2 0 0 0 0 0 0 0 0 0
OS2TypoAscent: 1638
OS2TypoAOffset: 0
OS2TypoDescent: -410
OS2TypoDOffset: 0
OS2TypoLinegap: 184
OS2WinAscent: 1638
OS2WinAOffset: 0
OS2WinDescent: 883
OS2WinDOffset: 0
HheadAscent: 1638
HheadAOffset: 0
HheadDescent: -883
HheadDOffset: 0
OS2SubXSize: 1433
OS2SubYSize: 1331
OS2SubXOff: 0
OS2SubYOff: 286
OS2SupXSize: 1433
OS2SupYSize: 1331
OS2SupXOff: 0
OS2SupYOff: 976
OS2StrikeYSize: 102
OS2StrikeYPos: 512
OS2Vendor: 'YGNT'
OS2CodePages: 00000021.00000000
OS2UnicodeRanges: 8000086f.4000204a.00000000.00000000
Lookup: 4 1 0 "'ccmp' Hataf CGJ Meteg substitutions"  {"'ccmp' Hataf CGJ Meteg substitutions subtable"  } ['ccmp' ('hebr' <'dflt' > ) ]

StartChar: .notdef
Encoding: 65536 -1 0
Width: 967
GlyphClass: 2
Flags: W
HStem: -51 150<143 827> 179 233<375 571> 851 21G<294.222 397> 1049 201<420.472 543.241> 1311 152<143 827>
VStem: 5 138<99 1311> 212 185<887 1026.58> 375 196<179 412 494 588.019> 560 187<835.274 1036.05> 827 135<99 1311>
LayerCount: 2
Fore
SplineSet
962 1463 m 1xfc40
 962 -51 l 1
 5 -51 l 1
 5 1463 l 1
 962 1463 l 1xfc40
827 99 m 1
 827 1311 l 1
 143 1311 l 1
 143 99 l 1
 827 99 l 1
571 412 m 1xfd40
 571 179 l 1
 375 179 l 1
 375 412 l 1
 571 412 l 1xfd40
484 1049 m 0
 437 1049 397 994 397 913 c 2
 397 851 l 1
 212 887 l 1
 212 929 l 2
 212 1112 325 1250 488 1250 c 0
 643 1250 747 1117 747 940 c 0
 747 749 619 680 567 589 c 1
 560 568 560 551 560 535 c 0
 560 521 560 508 560 494 c 1xfec0
 378 494 l 2
 375 494 375 503 375 517 c 0xfd40
 375 554 384 626 403 672 c 1
 454 798 560 842 560 932 c 0xfcc0
 560 1005 519 1049 484 1049 c 0
EndSplineSet
Validated: 1
EndChar

StartChar: sheva
Encoding: 1456 1456 37
Width: 0
GlyphClass: 4
Flags: W
HStem: -584 469
VStem: -108 216
AnchorPoint: "A-8" -164 0 mark 0
AnchorPoint: "A-48" -208 0 basemark 0
AnchorPoint: "A-70" 50 0 mark 0
AnchorPoint: "A-4" 0 0 mark 0
LayerCount: 2
Fore
SplineSet
-108 -224 m 1
 -80 -176 -46 -144 0 -115 c 1
 46 -144 80 -176 108 -224 c 1
 80 -270 46 -304 0 -331 c 1
 -46 -304 -80 -270 -108 -224 c 1
-108 -476 m 1
 -80 -429 -46 -396 0 -367 c 1
 46 -396 80 -429 108 -476 c 1
 80 -523 46 -557 0 -584 c 1
 -46 -557 -80 -523 -108 -476 c 1
EndSplineSet
Validated: 1
LCarets2: 1 0 
EndChar

StartChar: hatafsegol
Encoding: 1457 1457 38
Width: 0
GlyphClass: 4
Flags: W
HStem: -584 469
AnchorPoint: "A-73" 102 0 mark 0
AnchorPoint: "A-6" 2.0752 0 mark 0
LayerCount: 2
Fore
SplineSet
-404 -224 m 1
 -377 -176 -342 -144 -296 -115 c 1
 -250 -144 -216 -176 -189 -224 c 1
 -216 -270 -250 -304 -296 -331 c 1
 -342 -304 -377 -270 -404 -224 c 1
-118 -224 m 1
 -91 -176 -57 -144 -11 -115 c 1
 35 -144 69 -176 97 -224 c 1
 69 -270 35 -304 -11 -331 c 1
 -57 -304 -91 -270 -118 -224 c 1
-261 -476 m 1
 -234 -429 -200 -396 -154 -367 c 1
 -108 -396 -73 -429 -46 -476 c 1
 -73 -523 -108 -557 -154 -584 c 1
 -200 -557 -234 -523 -261 -476 c 1
189 -224 m 1
 216 -176 250 -144 296 -115 c 1
 342 -144 377 -176 404 -224 c 1
 377 -270 342 -304 296 -331 c 1
 250 -304 216 -270 189 -224 c 1
189 -476 m 1
 216 -429 250 -396 296 -367 c 1
 342 -396 377 -429 404 -476 c 1
 377 -523 342 -557 296 -584 c 1
 250 -557 216 -523 189 -476 c 1
EndSplineSet
Validated: 1
LCarets2: 1 0 
EndChar

StartChar: hatafpatah
Encoding: 1458 1458 39
Width: 0
GlyphClass: 4
Flags: W
HStem: -318 162<-300.795 61.7778>
AnchorPoint: "A-73" 99 0 mark 0
AnchorPoint: "A-6" -0.400391 0 mark 0
LayerCount: 2
Fore
SplineSet
182 -224 m 1
 209 -176 243 -144 290 -115 c 1
 336 -144 370 -176 397 -224 c 1
 370 -270 336 -304 290 -331 c 1
 243 -304 209 -270 182 -224 c 1
182 -476 m 1
 209 -429 243 -396 290 -367 c 1
 336 -396 370 -429 397 -476 c 1
 370 -523 336 -557 290 -584 c 1
 243 -557 209 -523 182 -476 c 1
55 -318 m 1
 -348 -318 l 1
 -341 -258 -324 -208 -294 -156 c 1
 109 -156 l 1
 101 -216 85 -265 55 -318 c 1
EndSplineSet
Validated: 1
LCarets2: 1 1 
EndChar

StartChar: hatafqamats
Encoding: 1459 1459 40
Width: 0
GlyphClass: 4
Flags: W
HStem: -318 162<-366.778 -224 -62 78.7778>
VStem: -224 162<-511.768 -318>
AnchorPoint: "A-73" 100.5 0 mark 0
AnchorPoint: "A-6" 0.125 0 mark 0
LayerCount: 2
Fore
SplineSet
-414 -318 m 1
 -406 -258 -390 -208 -360 -156 c 1
 126 -156 l 1
 118 -216 102 -265 72 -318 c 9
 -62 -318 l 1
 -62 -507 l 1
 -90 -511 -116 -513 -144 -513 c 0
 -172 -513 -196 -511 -224 -507 c 1
 -224 -318 l 1
 -414 -318 l 1
198 -224 m 1
 226 -176 260 -144 306 -115 c 1
 352 -144 386 -176 414 -224 c 1
 386 -270 352 -304 306 -331 c 1
 260 -304 226 -270 198 -224 c 1
198 -476 m 1
 226 -429 260 -396 306 -367 c 1
 352 -396 386 -429 414 -476 c 1
 386 -523 352 -557 306 -584 c 1
 260 -557 226 -523 198 -476 c 1
EndSplineSet
Validated: 1
LCarets2: 1 0 
EndChar

StartChar: hiriq
Encoding: 1460 1460 41
Width: 0
GlyphClass: 4
Flags: W
HStem: -331 217
VStem: -108 216
AnchorPoint: "A-48" -208 0 basemark 0
AnchorPoint: "A-8" -108 -1 mark 0
AnchorPoint: "A-59" 231.35 0 mark 0
AnchorPoint: "A-70" 101 0 mark 0
AnchorPoint: "A-4" 1 0 mark 0
LayerCount: 2
Fore
SplineSet
-108 -223 m 1
 -80 -176 -46 -143 0 -114 c 1
 46 -143 80 -176 108 -223 c 1
 80 -270 46 -304 0 -331 c 1
 -46 -304 -80 -270 -108 -223 c 1
EndSplineSet
Validated: 1
LCarets2: 1 -40 
EndChar

StartChar: tsere
Encoding: 1461 1461 42
Width: 0
GlyphClass: 4
Flags: W
HStem: -370 214
VStem: -259 518
AnchorPoint: "A-48" -399 0 basemark 0
AnchorPoint: "A-8" -101 0 mark 0
AnchorPoint: "A-71" 99 0 mark 0
AnchorPoint: "A-5" -1 0 mark 0
LayerCount: 2
Fore
SplineSet
44 -265 m 1
 72 -218 106 -185 152 -156 c 1
 198 -185 232 -218 259 -265 c 1
 232 -312 197 -342 151 -370 c 1
 105 -342 72 -312 44 -265 c 1
-259 -265 m 1
 -232 -218 -198 -185 -152 -156 c 1
 -106 -185 -72 -218 -44 -265 c 1
 -72 -312 -105 -342 -151 -370 c 1
 -197 -342 -232 -312 -259 -265 c 1
EndSplineSet
Validated: 1
LCarets2: 1 0 
EndChar

StartChar: segol
Encoding: 1462 1462 43
Width: 0
GlyphClass: 4
Flags: W
HStem: -559 444
VStem: -259 518
AnchorPoint: "A-8" -100 0 mark 0
AnchorPoint: "A-48" -359 2 basemark 0
AnchorPoint: "A-71" 100 0 mark 0
AnchorPoint: "A-5" 0 0 mark 0
LayerCount: 2
Fore
SplineSet
-259 -224 m 1
 -232 -177 -198 -144 -152 -115 c 1
 -106 -144 -72 -177 -44 -224 c 1
 -72 -271 -106 -305 -152 -332 c 1
 -198 -305 -232 -271 -259 -224 c 1
44 -224 m 1
 72 -177 106 -144 152 -115 c 1
 198 -144 232 -177 259 -224 c 1
 232 -271 198 -305 152 -332 c 1
 106 -305 72 -271 44 -224 c 1
-108 -451 m 1
 -80 -404 -46 -371 -0 -342 c 1
 46 -371 80 -404 108 -451 c 1
 80 -497 46 -532 -0 -559 c 1
 -46 -532 -80 -497 -108 -451 c 1
EndSplineSet
Validated: 1
LCarets2: 1 0 
EndChar

StartChar: patah
Encoding: 1463 1463 44
Width: 0
GlyphClass: 4
Flags: W
HStem: -320 164<-168.795 168.795>
VStem: -216 432
AnchorPoint: "A-8" -100 0 mark 0
AnchorPoint: "A-48" -361 0 basemark 0
AnchorPoint: "A-71" 100 0 mark 0
AnchorPoint: "A-5" -0.0751953 0 mark 0
LayerCount: 2
Fore
SplineSet
162 -320 m 1
 -216 -320 l 1
 -209 -260 -192 -208 -162 -156 c 1
 216 -156 l 1
 209 -216 192 -267 162 -320 c 1
EndSplineSet
Validated: 1
LCarets2: 1 0 
EndChar

StartChar: qamats
Encoding: 1464 1464 45
Width: 0
GlyphClass: 4
Flags: W
HStem: -318 162<-222.795 -81 81 222.795>
VStem: -81 162<-511.852 -318>
AnchorPoint: "A-8" -100 0 mark 0
AnchorPoint: "A-48" -370 0 basemark 0
AnchorPoint: "A-71" 100 0 mark 0
AnchorPoint: "A-5" 0.0751953 0 mark 0
LayerCount: 2
Fore
SplineSet
-270 -318 m 1
 -263 -258 -246 -208 -216 -156 c 1
 270 -156 l 1
 263 -216 246 -265 216 -318 c 9
 81 -318 l 1
 81 -507 l 1
 53 -511 29 -513 0 -513 c 0
 -29 -513 -53 -511 -81 -507 c 1
 -81 -318 l 1
 -270 -318 l 1
EndSplineSet
Validated: 1
LCarets2: 1 0 
EndChar

StartChar: holam
Encoding: 1465 1465 46
Width: 0
GlyphClass: 4
Flags: W
HStem: 1122 217
VStem: -300 216
AnchorPoint: "A-21" -402.5 0 mark 0
AnchorPoint: "A-20" -302.5 -5 mark 0
LayerCount: 2
Fore
SplineSet
-300 1230 m 1
 -272 1277 -238 1310 -192 1339 c 1
 -146 1310 -112 1277 -84 1230 c 1
 -112 1184 -146 1149 -192 1122 c 1
 -238 1149 -272 1184 -300 1230 c 1
EndSplineSet
Validated: 1
LCarets2: 1 -18 
EndChar

StartChar: qubuts
Encoding: 1467 1467 48
Width: 0
GlyphClass: 4
Flags: W
HStem: -623 510
VStem: -300 600
AnchorPoint: "A-8" -200.5 0 mark 0
AnchorPoint: "A-48" -399.5 0 basemark 0
AnchorPoint: "A-72" 99.5 0 mark 0
AnchorPoint: "A-5" -0.5 0 mark 0
LayerCount: 2
Fore
SplineSet
-108 -374 m 1
 -80 -326 -46 -293 -0 -264 c 1
 46 -293 80 -326 108 -374 c 1
 80 -420 46 -453 -0 -481 c 1
 -46 -453 -80 -420 -108 -374 c 1
-300 -222 m 1
 -272 -174 -238 -142 -192 -113 c 1
 -146 -142 -112 -174 -84 -222 c 1
 -112 -268 -146 -302 -192 -329 c 1
 -238 -302 -272 -268 -300 -222 c 1
84 -515 m 1
 112 -468 146 -435 192 -406 c 1
 238 -435 272 -468 300 -515 c 1
 272 -562 238 -596 192 -623 c 1
 146 -596 112 -562 84 -515 c 1
EndSplineSet
Validated: 1
LCarets2: 1 0 
EndChar

StartChar: dagesh
Encoding: 1468 1468 49
Width: 0
GlyphClass: 4
Flags: W
HStem: 399 226
VStem: -113 226
AnchorPoint: "A-3" 0 0 mark 0
LayerCount: 2
Fore
SplineSet
-113 512 m 1
 -82 558 -46 593 0 625 c 1
 48 593 81 558 113 512 c 1
 78 464 46 432 0 399 c 1
 -45 430 -80 465 -113 512 c 1
EndSplineSet
Validated: 1
LCarets2: 1 0 
EndChar

StartChar: meteg
Encoding: 1469 1469 50
Width: 0
GlyphClass: 4
Flags: W
HStem: -519 397<-81 81>
VStem: -81 162<-524.768 -116.232>
AnchorPoint: "A-48" 80 0 mark 0
AnchorPoint: "A-63" -152.925 0 mark 0
AnchorPoint: "A-62" -271.925 0 mark 0
AnchorPoint: "A-61" -382.425 0 mark 0
AnchorPoint: "A-73" -424.925 0 basemark 0
AnchorPoint: "A-72" -339.925 0 basemark 0
AnchorPoint: "A-71" -305.925 0 basemark 0
AnchorPoint: "A-70" -237.925 0 basemark 0
AnchorPoint: "A-4" 0.0751953 0 mark 0
LayerCount: 2
Fore
SplineSet
81 -519 m 1
 53 -524 29 -526 0 -526 c 0
 -29 -526 -53 -524 -81 -519 c 1
 -81 -122 l 1
 -53 -117 -29 -115 0 -115 c 0
 29 -115 53 -117 81 -122 c 1
 81 -519 l 1
EndSplineSet
Validated: 1
Ligature2: "remove taam before meteg table" lowerdot meteg
Ligature2: "remove taam before meteg table" dehi meteg
Ligature2: "remove taam before meteg table" yerahbenyomo meteg
Ligature2: "remove taam before meteg table" darga meteg
Ligature2: "remove taam before meteg table" merkhakefula meteg
Ligature2: "remove taam before meteg table" merkha meteg
Ligature2: "remove taam before meteg table" mahapakh meteg
Ligature2: "remove taam before meteg table" munah meteg
Ligature2: "remove taam before meteg table" atnahhafukh meteg
Ligature2: "remove taam before meteg table" tevir meteg
Ligature2: "remove taam before meteg table" yetiv meteg
Ligature2: "remove taam before meteg table" tipeha meteg
Ligature2: "remove taam before meteg table" atnah meteg
LCarets2: 1 0 
EndChar

StartChar: makaf
Encoding: 1470 1470 51
Width: 872
GlyphClass: 2
Flags: W
HStem: 744 304<210.178 660.648>
VStem: 100 672
LayerCount: 2
Fore
SplineSet
100 744 m 1
 119 849 153 943 216 1048 c 1
 772 1048 l 1
 750 934 708 826 653 744 c 1
 100 744 l 1
EndSplineSet
EndChar

StartChar: rafe
Encoding: 1471 1471 52
Width: 0
GlyphClass: 4
Flags: W
HStem: 1161 153<-197.866 201.767>
VStem: -244 488
AnchorPoint: "A-3" 0 0 mark 0
LayerCount: 2
Fore
SplineSet
194 1161 m 1
 -244 1161 l 1
 -237 1215 -219 1265 -190 1314 c 1
 244 1314 l 1
 237 1254 223 1209 194 1161 c 1
EndSplineSet
Validated: 1
LCarets2: 1 0 
EndChar

StartChar: paseq
Encoding: 1472 1472 53
Width: 402
GlyphClass: 2
Flags: W
VStem: 100 202<-119.092 1074.27>
LayerCount: 2
Fore
SplineSet
100 1069 m 1
 165 1098 233 1113 302 1116 c 1
 302 -113 l 1
 247 -140 177 -154 100 -160 c 1
 100 1069 l 1
EndSplineSet
EndChar

StartChar: shindot
Encoding: 1473 1473 54
Width: 0
GlyphClass: 4
Flags: W
HStem: 1120 216
VStem: -108 216
AnchorPoint: "A-60" -330.3 0 mark 0
LayerCount: 2
Fore
SplineSet
-108 1227 m 1
 -80 1275 -46 1307 -0 1336 c 1
 46 1307 80 1275 108 1227 c 1
 80 1181 46 1147 -0 1120 c 1
 -46 1147 -80 1181 -108 1227 c 1
EndSplineSet
Validated: 1
EndChar

StartChar: sindot
Encoding: 1474 1474 55
Width: 0
GlyphClass: 4
Flags: W
HStem: 1120 216
VStem: -108 216
AnchorPoint: "A-60" 356.5 0 mark 0
LayerCount: 2
Fore
SplineSet
-108 1227 m 1
 -80 1275 -46 1307 -0 1336 c 1
 46 1307 80 1275 108 1227 c 1
 80 1181 46 1147 -0 1120 c 1
 -46 1147 -80 1181 -108 1227 c 1
EndSplineSet
Validated: 1
EndChar

StartChar: sofpasuq
Encoding: 1475 1475 56
Width: 592
VWidth: 1706
GlyphClass: 2
Flags: W
VStem: 103 389
LayerCount: 2
Fore
SplineSet
291 966 m 1
 380 901 436 847 492 765 c 1
 442 688 378 622 313 570 c 1
 224 623 154 692 103 768 c 1
 155 846 225 924 291 966 c 1
288 358 m 1
 379 291 435 237 489 157 c 1
 440 82 377 17 310 -38 c 1
 223 13 153 82 100 160 c 1
 154 240 224 319 288 358 c 1
EndSplineSet
EndChar

StartChar: nunhapukha
Encoding: 1478 1478 59
Width: 739
GlyphClass: 2
Flags: W
HStem: -0 318<420 644.444> 784 275<421.196 611.586>
VStem: 212 216<319.406 640.763>
LayerCount: 2
Fore
SplineSet
404 645 m 0
 404 554 428 503 428 410 c 0
 428 378 425 348 420 318 c 1
 700 318 l 1
 685 255 l 1
 669 177 656 137 639 -0 c 1
 101 0 l 1
 126 63 l 2
 176 188 195 316 212 447 c 1
 212 632 227 733 254 794 c 1
 211 817 186 857 186 916 c 0
 186 967 203 1026 231 1100 c 1
 243 1134 l 1
 356 1134 l 1
 369 1102 l 1
 384 1069 407 1059 463 1059 c 0
 492 1059 527 1062 564 1062 c 0
 589 1062 614 1060 638 1055 c 2
 687 1043 l 1
 610 775 l 1
 565 780 l 2
 545 783 527 784 512 784 c 0
 453 784 404 769 404 645 c 0
EndSplineSet
Validated: 1
EndChar

StartChar: qamatsqatan
Encoding: 1479 1479 60
Width: 0
GlyphClass: 4
Flags: W
HStem: -318 162<-222.795 -81 81 222.795>
VStem: -81 162<-638.852 -318>
AnchorPoint: "A-8" -100 0 mark 0
AnchorPoint: "A-48" -370 0 basemark 0
AnchorPoint: "A-5" 0 0 mark 0
LayerCount: 2
Fore
SplineSet
-270 -318 m 1
 -263 -258 -246 -208 -216 -156 c 1
 270 -156 l 1
 263 -216 246 -265 216 -318 c 9
 81 -318 l 1
 81 -634 l 1
 53 -638 29 -640 0 -640 c 0
 -29 -640 -53 -638 -81 -634 c 1
 -81 -318 l 1
 -270 -318 l 1
EndSplineSet
Validated: 1
EndChar

StartChar: alef
Encoding: 1488 1488 61
Width: 1269
GlyphClass: 2
Flags: W
HStem: 0 21G<85 487.5>
VStem: 911 232<675.533 924.646>
AnchorPoint: "A-8" 718 0 basechar 0
AnchorPoint: "A-63" 875 0 basechar 0
AnchorPoint: "A-62" 560.975 0 basechar 0
AnchorPoint: "A-61" 560.975 0 basechar 0
AnchorPoint: "A-59" 55.2246 0 basechar 0
AnchorPoint: "A-21" -310.275 0 basechar 0
AnchorPoint: "A-20" 89.2246 0 basechar 0
AnchorPoint: "A-7" 625 0 basechar 0
AnchorPoint: "A-6" 625 0 basechar 0
AnchorPoint: "A-5" 670 0 basechar 0
AnchorPoint: "A-4" 725 0 basechar 0
LayerCount: 2
Fore
SplineSet
267 1118 m 1
 476 959 663 797 873 596 c 1
 899 635 911 671 911 705 c 0
 911 766 873 819 812 864 c 1
 863 969 931 1053 1005 1118 c 1
 1100 1029 1143 938 1143 845 c 0
 1143 734 1081 619 969 498 c 1
 1063 401 1139 324 1225 222 c 1
 1187 116 1136 32 1075 -44 c 1
 865 203 672 403 452 596 c 1
 395 529 358 445 358 374 c 0
 358 371 358 367 358 363 c 0
 358 339 362 304 411 304 c 2
 580 304 l 1
 555 194 518 97 457 0 c 1
 85 0 l 1
 93 43 124 113 156 174 c 1
 177 257 165 313 185 399 c 16
 214 524 264 601 336 686 c 1
 250 752 180 806 105 853 c 1
 144 958 194 1044 267 1118 c 1
EndSplineSet
LCarets2: 1 90 
Substitution2: "'jalt' Wide Letter Alternatives in Hebrew subtable" alef.wide
EndChar

StartChar: bet
Encoding: 1489 1489 62
Width: 1073
GlyphClass: 2
Flags: W
HStem: 0 21G<91 943> 720 304<383.255 658.639> 1141 20G<297 370.5>
VStem: 690 201<304 693.12>
AnchorPoint: "A-8" 556 0 basechar 0
AnchorPoint: "A-63" 558.55 0 basechar 0
AnchorPoint: "A-62" 558.55 0 basechar 0
AnchorPoint: "A-61" 558.55 0 basechar 0
AnchorPoint: "A-59" 129.3 0 basechar 0
AnchorPoint: "A-21" -236.2 0 basechar 0
AnchorPoint: "A-20" 112.3 0 basechar 0
AnchorPoint: "A-7" 558.55 0 basechar 0
AnchorPoint: "A-6" 558.55 0 basechar 0
AnchorPoint: "A-5" 558.55 0 basechar 0
AnchorPoint: "A-4" 558.55 0 basechar 0
LayerCount: 2
Fore
SplineSet
353 1161 m 1
 388 1024 405 1024 493 1024 c 2
 702 1024 l 1
 705 1024 707 1024 710 1024 c 0
 834 1024 893 913 893 792 c 1
 891 304 l 1
 1041 304 l 1
 1013 192 976 100 910 0 c 1
 91 0 l 1
 123 110 168 207 236 304 c 1
 690 304 l 1
 681 584 l 2
 677 666 649 720 574 720 c 10
 111 720 l 1
 159 872 241 1025 353 1161 c 1
EndSplineSet
LCarets2: 1 81 
EndChar

StartChar: gimel
Encoding: 1490 1490 63
Width: 783
GlyphClass: 2
Flags: W
HStem: -20 21G<91 208.5>
VStem: 91 641
AnchorPoint: "A-8" 406 0 basechar 0
AnchorPoint: "A-3" 478.176 0 basechar 0
AnchorPoint: "A-63" 549 0 basechar 0
AnchorPoint: "A-62" 408.476 0 basechar 0
AnchorPoint: "A-61" 408.476 0 basechar 0
AnchorPoint: "A-59" 102.476 0 basechar 0
AnchorPoint: "A-21" -263.024 0 basechar 0
AnchorPoint: "A-20" 178.976 0 basechar 0
AnchorPoint: "A-7" 408.476 0 basechar 0
AnchorPoint: "A-6" 408.476 0 basechar 0
AnchorPoint: "A-5" 408.476 0 basechar 0
AnchorPoint: "A-4" 408.476 0 basechar 0
LayerCount: 2
Fore
SplineSet
469 491 m 1
 452 590 418 656 336 720 c 0
 256 783 209 807 133 856 c 1
 179 958 240 1048 318 1118 c 1
 425 1049 521 983 579 906 c 0
 640 825 647 748 657 686 c 0
 658 680 731 205 732 192 c 1
 702 104 647 24 585 -43 c 1
 557 94 532 195 506 321 c 1
 433 131 326 9 91 -20 c 1
 91 -14 91 -9 91 -3 c 0
 91 88 106 178 139 280 c 1
 295 347 469 432 469 491 c 1
EndSplineSet
LCarets2: 1 54 
EndChar

StartChar: dalet
Encoding: 1491 1491 64
Width: 1083
GlyphClass: 2
Flags: W
HStem: 720 304<378.611 602 822 926.277> 1141 20G<295.5 366 781.5 812.5>
VStem: 610 209<158.05 720>
AnchorPoint: "A-8" 639 0 basechar 0
AnchorPoint: "A-3" 642 100 basechar 0
AnchorPoint: "A-63" 742 0 basechar 0
AnchorPoint: "A-62" 514.25 0 basechar 0
AnchorPoint: "A-61" 429.25 0 basechar 0
AnchorPoint: "A-59" 114.75 0 basechar 0
AnchorPoint: "A-21" -250.75 0 basechar 0
AnchorPoint: "A-20" 29.75 0 basechar 0
AnchorPoint: "A-7" 542 0 basechar 0
AnchorPoint: "A-6" 578 0 basechar 0
AnchorPoint: "A-5" 642 0 basechar 0
AnchorPoint: "A-4" 697 0 basechar 0
LayerCount: 2
Fore
SplineSet
349 1161 m 1
 383 1024 400 1024 489 1024 c 2
 662 1024 l 17
 703 1077 753 1121 810 1161 c 1
 815 1114 817 1075 820 1024 c 9
 1039 1024 l 17
 1018 922 971 810 919 720 c 9
 822 720 l 25
 822 720 822 328 819 174 c 1
 763 88 692 17 610 -43 c 1
 602 329 602 720 602 720 c 25
 102 720 l 1
 159 884 242 1024 349 1161 c 1
EndSplineSet
LCarets2: 1 73 
Substitution2: "'jalt' Wide Letter Alternatives in Hebrew subtable" dalet.wide
EndChar

StartChar: he
Encoding: 1492 1492 65
Width: 1231
GlyphClass: 2
Flags: W
HStem: 720 304<417.611 868.542> 1141 20G<326.5 405>
VStem: 200 233<147.708 427.534> 897 210<152.097 709.006>
AnchorPoint: "A-8" 625 0 basechar 0
AnchorPoint: "A-63" 790 0 basechar 0
AnchorPoint: "A-62" 624.925 0 basechar 0
AnchorPoint: "A-61" 624.925 0 basechar 0
AnchorPoint: "A-59" 127.675 0 basechar 0
AnchorPoint: "A-21" -237.825 0 basechar 0
AnchorPoint: "A-20" 127.675 0 basechar 0
AnchorPoint: "A-7" 624.925 0 basechar 0
AnchorPoint: "A-6" 624.925 0 basechar 0
AnchorPoint: "A-5" 624.925 0 basechar 0
AnchorPoint: "A-4" 624.925 0 basechar 0
LayerCount: 2
Fore
SplineSet
1107 751 m 10
 1107 751 1107 387 1107 171 c 1
 1056 90 977 13 897 -43 c 1
 888 215 883 635 883 635 c 18
 881 708 847 720 799 720 c 2
 100 720 l 1
 168 870 265 1024 388 1161 c 1
 422 1024 439 1024 528 1024 c 2
 830 1024 l 2
 1045 1024 1107 911 1107 751 c 10
419 565 m 1
 429 533 433 447 433 348 c 0
 433 287 431 221 429 159 c 1
 367 78 290 12 200 -43 c 1
 196 58 194 127 194 193 c 0
 194 251 196 307 200 382 c 1
 260 453 334 513 419 565 c 1
EndSplineSet
LCarets2: 1 88 
Substitution2: "'jalt' Wide Letter Alternatives in Hebrew subtable" he.wide
EndChar

StartChar: vav
Encoding: 1493 1493 66
Width: 664
GlyphClass: 2
Flags: W
VStem: 341 213<153.884 652.328>
AnchorPoint: "A-8" 354 0 basechar 0
AnchorPoint: "A-63" 468 0 basechar 0
AnchorPoint: "A-62" 197.25 0 basechar 0
AnchorPoint: "A-61" 265.25 0 basechar 0
AnchorPoint: "A-59" 57 0 basechar 0
AnchorPoint: "A-21" 159 0 basechar 0
AnchorPoint: "A-20" 159 0 basechar 0
AnchorPoint: "A-7" 313 0 basechar 0
AnchorPoint: "A-6" 303.5 0 basechar 0
AnchorPoint: "A-5" 350.25 0 basechar 0
AnchorPoint: "A-4" 398 0 basechar 0
LayerCount: 2
Fore
SplineSet
264 1118 m 1
 344 1055 396 1011 467 930 c 0
 532 856 554 772 554 659 c 0
 554 657 554 654 554 652 c 2
 554 652 554 355 554 174 c 1
 496 87 423 15 341 -43 c 1
 341 125 341 451 341 451 c 2
 340 548 326 636 262 695 c 0
 199 753 137 801 78 843 c 1
 125 951 192 1053 264 1118 c 1
EndSplineSet
LCarets2: 1 39 
EndChar

StartChar: zain
Encoding: 1494 1494 67
Width: 751
GlyphClass: 2
Flags: W
VStem: 174 183<505.5 688>
AnchorPoint: "A-8" 385 0 basechar 0
AnchorPoint: "A-63" 484 0 basechar 0
AnchorPoint: "A-62" 241.139 0 basechar 0
AnchorPoint: "A-61" 241.139 0 basechar 0
AnchorPoint: "A-59" 79.6387 0 basechar 0
AnchorPoint: "A-21" -285.861 0 basechar 0
AnchorPoint: "A-20" 37.1387 0 basechar 0
AnchorPoint: "A-7" 334 0 basechar 0
AnchorPoint: "A-6" 326.139 0 basechar 0
AnchorPoint: "A-5" 334.639 0 basechar 0
AnchorPoint: "A-4" 384 0 basechar 0
LayerCount: 2
Fore
SplineSet
266 1118 m 1
 404 1050 572 949 662 845 c 1
 632 751 581 664 524 589 c 1
 466 631 416 671 360 705 c 1
 358 699 357 692 357 684 c 0
 357 651 371 604 387 561 c 0
 427 457 462 389 524 263 c 1
 494 128 441 38 369 -43 c 1
 281 164 235 282 191 425 c 0
 181 458 174 489 174 522 c 0
 174 550 179 580 191 612 c 0
 212 672 239 713 266 758 c 1
 203 794 156 818 85 855 c 1
 135 963 197 1053 266 1118 c 1
EndSplineSet
LCarets2: 1 46 
EndChar

StartChar: het
Encoding: 1495 1495 68
Width: 1188
GlyphClass: 2
Flags: W
HStem: 724 300<398.611 761.774> 1141 20G<319.5 386>
VStem: 193 203<163.214 489.841> 912 200<159.182 495.452>
AnchorPoint: "A-8" 658 0 basechar 0
AnchorPoint: "A-63" 781 0 basechar 0
AnchorPoint: "A-62" 657.325 0 basechar 0
AnchorPoint: "A-61" 657.325 0 basechar 0
AnchorPoint: "A-59" 121.825 0 basechar 0
AnchorPoint: "A-21" -243.675 0 basechar 0
AnchorPoint: "A-20" 121.825 0 basechar 0
AnchorPoint: "A-7" 657.325 0 basechar 0
AnchorPoint: "A-6" 657.325 0 basechar 0
AnchorPoint: "A-5" 657.325 0 basechar 0
AnchorPoint: "A-4" 657.325 0 basechar 0
AnchorPoint: "A-3" 631 0 basechar 0
LayerCount: 2
Fore
SplineSet
509 1024 m 2
 640 1024 l 18
 753 1024 843 1012 908 971 c 0
 1027 896 1073 789 1094 638 c 0
 1109 534 1112 453 1112 369 c 0
 1112 310 1110 250 1110 179 c 1
 1058 93 999 26 912 -43 c 1
 912 142 912 314 893 439 c 8
 874 562 819 672 714 703 c 0
 648 722 543 724 457 724 c 0
 435 724 414 724 396 724 c 1
 396 724 396 382 396 184 c 1
 339 94 272 21 193 -43 c 1
 186 471 171 679 125 824 c 1
 183 954 270 1074 369 1161 c 1
 403 1024 420 1024 509 1024 c 2
EndSplineSet
LCarets2: 1 91 
EndChar

StartChar: tet
Encoding: 1496 1496 69
Width: 1294
GlyphClass: 2
Flags: W
HStem: -17 21G<477.5 666.5> 765 314<678.57 920.389>
VStem: 998 188<443.583 827>
AnchorPoint: "A-8" 668 0 basechar 0
AnchorPoint: "A-63" 780 0 basechar 0
AnchorPoint: "A-62" 666.25 0 basechar 0
AnchorPoint: "A-61" 666.25 0 basechar 0
AnchorPoint: "A-59" 164.75 0 basechar 0
AnchorPoint: "A-21" -200.75 0 basechar 0
AnchorPoint: "A-20" 147.75 0 basechar 0
AnchorPoint: "A-7" 666.25 0 basechar 0
AnchorPoint: "A-6" 666.25 0 basechar 0
AnchorPoint: "A-5" 666.25 0 basechar 0
AnchorPoint: "A-4" 666.25 0 basechar 0
LayerCount: 2
Fore
SplineSet
97 821 m 1
 140 932 203 1031 292 1118 c 1
 400 898 430 755 507 427 c 0
 524 353 566 287 640 287 c 0
 643 287 645 287 647 287 c 0
 749 292 892 375 950 440 c 1
 984 475 998 514 998 558 c 0
 998 587 992 617 981 649 c 0
 956 720 865 765 776 765 c 0
 682 765 606 727 541 676 c 1
 548 794 572 898 621 995 c 1
 694 1055 768 1079 858 1079 c 0
 1048 1079 1186 947 1186 707 c 0
 1186 541 1154 408 1068 265 c 0
 1012 172 948 102 868 58 c 0
 792 16 717 -17 616 -17 c 8
 339 -17 375 195 247 550 c 8
 207 663 148 761 97 821 c 1
EndSplineSet
LCarets2: 1 85 
EndChar

StartChar: yod
Encoding: 1497 1497 70
Width: 669
GlyphClass: 2
Flags: W
HStem: 291 21G<198 205>
VStem: 314 241<586.879 773.5>
AnchorPoint: "A-8" 276 0 basechar 0
AnchorPoint: "A-63" 386 0 basechar 0
AnchorPoint: "A-62" 250.875 0 basechar 0
AnchorPoint: "A-61" 250.875 0 basechar 0
AnchorPoint: "A-59" 72.375 0 basechar 0
AnchorPoint: "A-21" -293.125 0 basechar 0
AnchorPoint: "A-20" 12.875 0 basechar 0
AnchorPoint: "A-7" 286 0 basechar 0
AnchorPoint: "A-6" 267.875 0 basechar 0
AnchorPoint: "A-5" 267.875 0 basechar 0
AnchorPoint: "A-4" 267.875 0 basechar 0
LayerCount: 2
Fore
SplineSet
284 1118 m 1
 376 1033 429 977 492 908 c 0
 535 860 555 803 555 744 c 0
 555 695 541 645 516 597 c 0
 480 530 433 457 371 372 c 1
 307 329 243 304 167 291 c 1
 229 394 259 453 295 533 c 0
 307 559 314 582 314 604 c 0
 314 637 298 669 254 711 c 8
 193 769 162 795 96 857 c 1
 144 961 206 1043 284 1118 c 1
EndSplineSet
LCarets2: 1 36 
EndChar

StartChar: finalkaf
Encoding: 1498 1498 71
Width: 1032
GlyphClass: 2
Flags: W
HStem: 720 304<374.611 594 794 875.897> 1141 20G<296.5 362>
VStem: 584 204<-132.694 720>
AnchorPoint: "A-8" 303 0 basechar 0
AnchorPoint: "A-63" 306.95 0 basechar 0
AnchorPoint: "A-62" 247.45 0 basechar 0
AnchorPoint: "A-61" 145.45 0 basechar 0
AnchorPoint: "A-59" 111.45 0 basechar 0
AnchorPoint: "A-21" -254.05 0 basechar 0
AnchorPoint: "A-20" 43.4502 0 basechar 0
AnchorPoint: "A-7" 39 0 basechar 0
AnchorPoint: "A-6" 129 0 basechar 0
AnchorPoint: "A-5" 289 0 basechar 0
AnchorPoint: "A-4" 417.45 0 basechar 0
LayerCount: 2
Fore
SplineSet
345 1161 m 1
 379 1024 396 1024 485 1024 c 10
 984 1024 l 1
 964 919 925 811 868 720 c 1
 794 720 l 1
 790 606 788 499 788 392 c 0
 788 225 794 57 807 -142 c 1
 757 -231 681 -318 595 -382 c 1
 591 -315 584 -204 584 -79 c 0
 584 149 589 447 594 720 c 9
 99 720 l 1
 159 884 248 1045 345 1161 c 1
EndSplineSet
LCarets2: 1 72 
EndChar

StartChar: kaf
Encoding: 1499 1499 72
Width: 1032
GlyphClass: 2
Flags: W
HStem: 0 21G<77 725> 720 304<391.611 649.668> 1141 20G<310 379>
VStem: 743 203<341.839 624.977>
AnchorPoint: "A-8" 527 0 basechar 0
AnchorPoint: "A-63" 593 0 basechar 0
AnchorPoint: "A-62" 507.65 0 basechar 0
AnchorPoint: "A-61" 507.65 0 basechar 0
AnchorPoint: "A-59" 116.65 0 basechar 0
AnchorPoint: "A-21" -248.85 0 basechar 0
AnchorPoint: "A-20" 82.6504 0 basechar 0
AnchorPoint: "A-7" 523 0 basechar 0
AnchorPoint: "A-6" 443 0 basechar 0
AnchorPoint: "A-5" 443 0 basechar 0
AnchorPoint: "A-4" 473 0 basechar 0
LayerCount: 2
Fore
SplineSet
610 304 m 2
 713 304 743 399 743 479 c 0
 743 503 740 526 736 544 c 8
 709 656 622 720 499 720 c 10
 113 720 l 1
 166 883 258 1032 362 1161 c 1
 396 1024 413 1024 502 1024 c 2
 557 1024 l 2
 597 1024 656 1019 691 1009 c 0
 852 962 946 811 946 614 c 0
 946 404 901 213 812 68 c 0
 777 10 753 0 697 0 c 2
 77 0 l 1
 102 102 151 210 210 304 c 1
 610 304 l 2
EndSplineSet
LCarets2: 1 74 
Substitution2: "'jalt' Wide Letter Alternatives in Hebrew subtable" kaf.wide
EndChar

StartChar: lamed
Encoding: 1500 1500 73
Width: 1016
GlyphClass: 2
Flags: W
HStem: -27 21G<170 219> 720 304<304.115 656.952>
VStem: 110 193<1025.88 1137.62> 660 241<610.684 923>
AnchorPoint: "A-8" 473 0 basechar 0
AnchorPoint: "A-63" 475 0 basechar 0
AnchorPoint: "A-62" 329.825 0 basechar 0
AnchorPoint: "A-61" 355.325 0 basechar 0
AnchorPoint: "A-59" 91.8252 0 basechar 0
AnchorPoint: "A-21" -273.675 0 basechar 0
AnchorPoint: "A-20" -175 100 basechar 0
AnchorPoint: "A-7" 475 0 basechar 0
AnchorPoint: "A-6" 440.325 0 basechar 0
AnchorPoint: "A-5" 425 0 basechar 0
AnchorPoint: "A-4" 375 0 basechar 0
LayerCount: 2
Fore
SplineSet
261 1403 m 1
 312 1352 300 1225 303 1111 c 0
 303 1108 303 1104 303 1101 c 0
 303 1098 303 1096 303 1094 c 0
 303 1057 305 1024 370 1024 c 2
 808 1024 l 2
 894 1024 901 947 901 899 c 0
 901 807 882 664 846 550 c 0
 795 389 738 230 505 89 c 8
 383 15 278 -12 160 -27 c 1
 180 88 216 195 274 304 c 1
 378 338 498 358 583 430 c 0
 639 478 660 546 660 637 c 0
 660 676 658 720 586 720 c 2
 184 720 l 2
 129 720 110 737 110 811 c 0
 110 905 110 941 110 1024 c 16
 110 1082 110 1091 51 1154 c 1
 101 1243 181 1334 261 1403 c 1
EndSplineSet
LCarets2: 1 67 
Substitution2: "'jalt' Wide Letter Alternatives in Hebrew subtable" lamed.wide
EndChar

StartChar: finalmem
Encoding: 1501 1501 74
Width: 1285
GlyphClass: 2
Flags: W
HStem: 0 21G<329 989> 720 304<401.637 945.84> 1141 20G<304.5 378>
VStem: 223 178<353.324 718.436> 990 191<304.465 673.666>
AnchorPoint: "A-8" 729 0 basechar 0
AnchorPoint: "A-63" 787 0 basechar 0
AnchorPoint: "A-62" 599.9 0 basechar 0
AnchorPoint: "A-61" 599.9 0 basechar 0
AnchorPoint: "A-59" 119.65 0 basechar 0
AnchorPoint: "A-21" -245.85 0 basechar 0
AnchorPoint: "A-20" 85.6504 0 basechar 0
AnchorPoint: "A-7" 687 0 basechar 0
AnchorPoint: "A-6" 727 0 basechar 0
AnchorPoint: "A-5" 687 0 basechar 0
AnchorPoint: "A-4" 637 0 basechar 0
AnchorPoint: "A-3" 687 0 basechar 0
LayerCount: 2
Fore
SplineSet
401 720 m 1
 404 628 401 534 424 423 c 8
 438 355 449 304 558 304 c 2
 941 304 l 2
 990 304 989 336 990 369 c 0
 991 387 990 404 990 420 c 0
 990 493 983 555 969 631 c 0
 961 674 918 720 819 720 c 2
 401 720 l 1
1181 509 m 0
 1181 353 1162 179 1130 113 c 0
 1095 40 1036 0 942 0 c 2
 385 0 l 2
 273 0 245 79 240 181 c 0
 232 348 225 488 223 660 c 0
 223 663 223 667 223 671 c 0
 223 692 218 720 155 720 c 10
 97 720 l 1
 165 882 248 1019 361 1161 c 1
 395 1024 412 1024 501 1024 c 2
 942 1024 l 2
 1037 1024 1096 984 1131 911 c 0
 1163 845 1181 667 1181 509 c 0
EndSplineSet
LCarets2: 1 83 
Substitution2: "'jalt' Wide Letter Alternatives in Hebrew subtable" finalmem.wide
EndChar

StartChar: mem
Encoding: 1502 1502 75
Width: 1250
GlyphClass: 2
Flags: W
HStem: 0 21G<446 1059> 761 306<677.637 852.583>
VStem: 990 190<307.277 584.706>
AnchorPoint: "A-8" 624 0 basechar 0
AnchorPoint: "A-63" 795 0 basechar 0
AnchorPoint: "A-62" 618.75 0 basechar 0
AnchorPoint: "A-61" 618.75 0 basechar 0
AnchorPoint: "A-59" 134.25 0 basechar 0
AnchorPoint: "A-21" -231.25 0 basechar 0
AnchorPoint: "A-20" 168.25 0 basechar 0
AnchorPoint: "A-7" 618.75 0 basechar 0
AnchorPoint: "A-6" 618.75 0 basechar 0
AnchorPoint: "A-5" 618.75 0 basechar 0
AnchorPoint: "A-4" 618.75 0 basechar 0
LayerCount: 2
Fore
SplineSet
310 1118 m 1
 397 1000 463 891 508 765 c 1
 588 957 670 1067 822 1067 c 0
 986 1067 1038 971 1069 927 c 0
 1146 817 1180 590 1180 428 c 0
 1180 391 1179 357 1175 329 c 1
 1139 212 1095 114 1023 0 c 1
 446 0 l 1
 475 112 518 203 584 304 c 1
 990 304 l 1
 989 430 968 563 920 640 c 8
 874 714 814 761 732 761 c 0
 633 761 552 680 507 575 c 16
 450 440 402 280 371 148 c 1
 299 74 203 8 105 -43 c 1
 135 121 197 275 243 439 c 0
 254 479 259 509 259 533 c 0
 259 578 244 605 228 642 c 0
 192 719 141 778 112 809 c 1
 146 927 222 1050 310 1118 c 1
EndSplineSet
LCarets2: 1 89 
EndChar

StartChar: finalnun
Encoding: 1503 1503 76
Width: 677
GlyphClass: 2
Flags: W
VStem: 340 213<-222.252 652.328>
AnchorPoint: "A-8" -103 0 basechar 0
AnchorPoint: "A-63" 17 0 basechar 0
AnchorPoint: "A-62" -218.7 0 basechar 0
AnchorPoint: "A-61" -329.2 0 basechar 0
AnchorPoint: "A-59" 53.2998 0 basechar 0
AnchorPoint: "A-21" -312.2 0 basechar 0
AnchorPoint: "A-20" -6.2002 0 basechar 0
AnchorPoint: "A-7" -201.7 0 basechar 0
AnchorPoint: "A-6" -167.7 0 basechar 0
AnchorPoint: "A-5" -57.2002 0 basechar 0
AnchorPoint: "A-4" 53.2998 0 basechar 0
AnchorPoint: "A-3" 107 0 basechar 0
LayerCount: 2
Fore
SplineSet
263 1118 m 1
 337 1063 395 1012 466 930 c 16
 530 857 553 772 553 659 c 0
 553 657 553 654 553 652 c 2
 553 652 553 -22 553 -203 c 1
 493 -286 425 -358 340 -420 c 1
 340 -253 340 451 340 451 c 2
 339 548 325 636 261 695 c 0
 198 753 136 801 77 843 c 1
 124 951 191 1053 263 1118 c 1
EndSplineSet
LCarets2: 1 36 
EndChar

StartChar: nun
Encoding: 1504 1504 77
Width: 738
GlyphClass: 2
Flags: W
HStem: 0 21G<97 554.5>
VStem: 454 198<307.178 615.47>
AnchorPoint: "A-8" 374 0 basechar 0
AnchorPoint: "A-63" 454 0 basechar 0
AnchorPoint: "A-62" 313.825 0 basechar 0
AnchorPoint: "A-61" 313.825 0 basechar 0
AnchorPoint: "A-59" 101.325 0 basechar 0
AnchorPoint: "A-21" -242.925 0 basechar 0
AnchorPoint: "A-20" 152.325 0 basechar 0
AnchorPoint: "A-7" 373.325 0 basechar 0
AnchorPoint: "A-6" 373.325 0 basechar 0
AnchorPoint: "A-5" 334 0 basechar 0
AnchorPoint: "A-4" 373.325 0 basechar 0
LayerCount: 2
Fore
SplineSet
278 1118 m 1
 419 1036 594 959 627 753 c 0
 643 655 652 543 652 426 c 0
 652 394 651 362 650 329 c 1
 628 213 579 90 530 0 c 1
 97 0 l 1
 107 114 135 216 179 304 c 1
 454 304 l 1
 454 312 454 319 454 327 c 0
 454 342 454 357 454 372 c 0
 454 481 441 581 389 650 c 0
 317 744 187 797 114 836 c 1
 155 946 211 1034 278 1118 c 1
EndSplineSet
LCarets2: 1 47 
EndChar

StartChar: samekh
Encoding: 1505 1505 78
Width: 1324
GlyphClass: 2
Flags: W
HStem: -17 21G<545.5 678> 720 304<453.826 968.783> 1141 20G<293 361>
VStem: 226 227<586.961 720> 984 220<484.516 709.481>
AnchorPoint: "A-8" 706 0 basechar 0
AnchorPoint: "A-63" 788 0 basechar 0
AnchorPoint: "A-62" 667.7 0 basechar 0
AnchorPoint: "A-61" 667.7 0 basechar 0
AnchorPoint: "A-59" 174.7 0 basechar 0
AnchorPoint: "A-21" -182.3 0 basechar 0
AnchorPoint: "A-20" 174.7 0 basechar 0
AnchorPoint: "A-7" 667.7 0 basechar 0
AnchorPoint: "A-6" 708 0 basechar 0
AnchorPoint: "A-5" 667.7 0 basechar 0
AnchorPoint: "A-4" 667.7 0 basechar 0
LayerCount: 2
Fore
SplineSet
453 720 m 1
 453 720 518 484 568 336 c 16
 577 307 599 289 637 289 c 0
 660 289 689 296 724 310 c 8
 862 366 984 426 984 589 c 8
 984 650 969 720 898 720 c 10
 453 720 l 1
97 720 m 17
 151 881 242 1029 344 1161 c 1
 378 1024 395 1024 484 1024 c 2
 1098 1024 l 2
 1167 1024 1204 954 1204 858 c 0
 1204 853 1204 848 1204 843 c 0
 1198 642 1180 476 1090 311 c 8
 977 104 775 -17 581 -17 c 8
 510 -17 461 28 436 96 c 16
 363 292 289 524 226 720 c 9
 97 720 l 17
EndSplineSet
LCarets2: 1 87 
EndChar

StartChar: ayin
Encoding: 1506 1506 79
Width: 1147
GlyphClass: 2
Flags: W
VStem: 387 193<304 377.275> 811 224<436.171 861.318>
AnchorPoint: "A-63" 707 0 basechar 0
AnchorPoint: "A-62" 518.125 0 basechar 0
AnchorPoint: "A-61" 518.125 0 basechar 0
AnchorPoint: "A-59" 84.625 0 basechar 0
AnchorPoint: "A-21" -280.875 0 basechar 0
AnchorPoint: "A-20" 67.625 0 basechar 0
AnchorPoint: "A-7" 484.125 0 basechar 0
AnchorPoint: "A-6" 617 0 basechar 0
AnchorPoint: "A-5" 537 0 basechar 0
AnchorPoint: "A-4" 518.125 0 basechar 0
AnchorPoint: "A-3" 657 40 basechar 0
LayerCount: 2
Fore
SplineSet
318 1118 m 1
 470 882 539 512 580 304 c 1
 741 373 811 455 811 567 c 0
 811 644 778 734 718 843 c 1
 777 952 840 1038 925 1118 c 1
 990 1013 1035 863 1035 703 c 0
 1035 597 1015 487 970 382 c 0
 843 92 409 -108 45 -239 c 1
 76 -111 113 0 174 118 c 1
 240 152 345 196 387 215 c 1
 323 532 185 688 90 826 c 1
 149 930 224 1024 318 1118 c 1
EndSplineSet
LCarets2: 1 78 
Substitution2: "Automatic Alternate Ayin Subtable" ayin.alt
Substitution2: "'salt' Stylistic Alternatives in Hebrew subtable" ayin.alt
EndChar

StartChar: finalpe
Encoding: 1507 1507 80
Width: 1076
GlyphClass: 2
Flags: W
HStem: 304 21G<280 374>
VStem: 123 223<620.869 718.766> 740 230<-204.796 621.938>
AnchorPoint: "A-8" 324.444 0 basechar 0
AnchorPoint: "A-63" 425.82 0 basechar 0
AnchorPoint: "A-62" 332.32 0 basechar 0
AnchorPoint: "A-61" 238.82 0 basechar 0
AnchorPoint: "A-59" 136.82 0 basechar 0
AnchorPoint: "A-21" -228.68 0 basechar 0
AnchorPoint: "A-20" 136.82 0 basechar 0
AnchorPoint: "A-7" 164.444 0 basechar 0
AnchorPoint: "A-6" 264.444 0 basechar 0
AnchorPoint: "A-5" 414.444 0 basechar 0
AnchorPoint: "A-4" 527.82 0 basechar 0
LayerCount: 2
Fore
SplineSet
528 1092 m 1
 636 1044 709 1002 791 944 c 0
 902 865 970 763 970 570 c 2
 970 570 970 119 970 -189 c 1
 907 -274 831 -347 740 -406 c 1
 740 -169 740 418 740 418 c 2
 740 558 705 642 619 708 c 0
 561 753 480 795 422 817 c 1
 395 795 356 766 347 719 c 16
 346 714 346 709 346 704 c 0
 346 643 412 599 480 555 c 1
 452 462 399 361 349 304 c 1
 211 360 135 461 123 594 c 0
 122 602 123 609 123 617 c 0
 123 818 360 1013 528 1092 c 1
EndSplineSet
LCarets2: 1 73 
EndChar

StartChar: pe
Encoding: 1508 1508 81
Width: 1016
GlyphClass: 2
Flags: W
HStem: 0 21G<87 835.5>
VStem: 138 237<664.51 801.695> 716 205<306.508 658.581>
AnchorPoint: "A-8" 536 16 basechar 0
AnchorPoint: "A-63" 644 0 basechar 0
AnchorPoint: "A-62" 535.65 0 basechar 0
AnchorPoint: "A-61" 535.65 0 basechar 0
AnchorPoint: "A-59" 119.15 0 basechar 0
AnchorPoint: "A-21" -246.35 0 basechar 0
AnchorPoint: "A-20" 187.15 0 basechar 0
AnchorPoint: "A-7" 494 0 basechar 0
AnchorPoint: "A-6" 444 0 basechar 0
AnchorPoint: "A-5" 494 0 basechar 0
AnchorPoint: "A-4" 494 0 basechar 0
LayerCount: 2
Fore
SplineSet
495 1096 m 1
 597 1056 667 1025 764 957 c 0
 873 882 909 797 916 657 c 0
 920 570 921 510 921 446 c 0
 921 410 921 373 921 329 c 1
 897 208 861 104 810 0 c 1
 87 0 l 1
 104 113 129 210 182 304 c 1
 716 304 l 1
 716 387 716 493 716 493 c 10
 716 584 703 650 619 705 c 0
 549 751 495 775 418 806 c 1
 390 783 377 766 375 734 c 16
 375 733 375 731 375 730 c 0
 375 683 428 659 500 613 c 1
 474 531 428 442 375 377 c 1
 237 433 145 509 138 628 c 0
 138 633 138 638 138 643 c 0
 138 838 324 1016 495 1096 c 1
EndSplineSet
LCarets2: 1 75 
EndChar

StartChar: finaltsadi
Encoding: 1509 1509 82
Width: 1074
GlyphClass: 2
Flags: W
VStem: 591 191<-191.349 -42.4727> 698 264<664.21 890.693>
AnchorPoint: "A-8" 1200 0 basechar 0
AnchorPoint: "A-63" 1132 0 basechar 0
AnchorPoint: "A-62" 850.25 0 basechar 0
AnchorPoint: "A-61" 850.25 0 basechar 0
AnchorPoint: "A-59" 357.25 0 basechar 0
AnchorPoint: "A-21" -8.25 0 basechar 0
AnchorPoint: "A-20" 297.75 0 basechar 0
AnchorPoint: "A-7" 1332 0 basechar 0
AnchorPoint: "A-6" 1196 0 basechar 0
AnchorPoint: "A-5" 1022 0 basechar 0
AnchorPoint: "A-4" 932 0 basechar 0
AnchorPoint: "A-3" 182 -100 basechar 0
LayerCount: 2
Fore
SplineSet
281 1079 m 1x80
 437 898 515 727 605 534 c 1
 663 588 698 643 698 702 c 0
 698 737 685 774 657 813 c 1
 714 917 773 999 855 1079 c 1
 931 994 962 911 962 832 c 0x40
 962 664 823 511 670 386 c 1
 733 207 782 -1 782 -138 c 0
 782 -147 781 -156 781 -164 c 1
 744 -247 675 -334 591 -403 c 1
 586 -141 526 109 416 347 c 8
 322 550 225 659 92 821 c 1
 140 927 208 1012 281 1079 c 1x80
EndSplineSet
LCarets2: 1 71 
EndChar

StartChar: tsadi
Encoding: 1510 1510 83
Width: 1086
GlyphClass: 2
Flags: W
HStem: 0 21G<91 891>
VStem: 753 217<678.269 940.83>
AnchorPoint: "A-8" 508 0 basechar 0
AnchorPoint: "A-63" 648 0 basechar 0
AnchorPoint: "A-62" 513.625 0 basechar 0
AnchorPoint: "A-61" 513.625 0 basechar 0
AnchorPoint: "A-59" 122.625 0 basechar 0
AnchorPoint: "A-21" -242.875 0 basechar 0
AnchorPoint: "A-20" 71.625 0 basechar 0
AnchorPoint: "A-7" 513.625 0 basechar 0
AnchorPoint: "A-6" 488 0 basechar 0
AnchorPoint: "A-5" 498 0 basechar 0
AnchorPoint: "A-4" 513.625 0 basechar 0
LayerCount: 2
Fore
SplineSet
297 1133 m 1
 333 928 534 804 736 620 c 1
 747 639 753 661 753 685 c 0
 753 741 722 804 668 853 c 1
 715 967 772 1048 848 1118 c 1
 934 1039 970 951 970 860 c 0
 970 751 918 639 838 536 c 1
 898 485 971 410 975 304 c 1
 954 196 919 92 863 0 c 1
 91 0 l 1
 124 114 168 209 227 304 c 1
 719 304 l 1
 673 447 171 649 108 872 c 1
 156 978 215 1060 297 1133 c 1
EndSplineSet
LCarets2: 1 75 
EndChar

StartChar: kof
Encoding: 1511 1511 84
Width: 1256
GlyphClass: 2
Flags: W
HStem: -15 21G<516 586> 720 304<381.611 889.347> 1141 20G<295.5 369>
VStem: 194 218<-145.346 399.985> 211 207<-178.246 130.517> 901 235<509.261 705.977>
AnchorPoint: "A-8" 937 0 basechar 0
AnchorPoint: "A-63" 941 0 basechar 0
AnchorPoint: "A-62" 584.825 0 basechar 0
AnchorPoint: "A-61" 584.825 0 basechar 0
AnchorPoint: "A-59" 125.825 0 basechar 0
AnchorPoint: "A-21" -239.675 0 basechar 0
AnchorPoint: "A-20" 108.825 0 basechar 0
AnchorPoint: "A-7" 941 0 basechar 0
AnchorPoint: "A-6" 841 0 basechar 0
AnchorPoint: "A-5" 721 0 basechar 0
AnchorPoint: "A-4" 584.825 0 basechar 0
LayerCount: 2
Fore
SplineSet
412 597 m 1xf4
 418 316 418 92 418 -157 c 1
 360 -249 299 -323 211 -406 c 1xec
 194 -164 196 89 194 381 c 1
 253 463 324 532 412 597 c 1xf4
101 720 m 1
 162 882 239 1012 352 1161 c 1
 386 1024 403 1024 492 1024 c 2
 995 1024 l 2
 1088 1024 1136 966 1136 877 c 0
 1136 667 1106 440 976 266 c 0
 862 113 660 17 512 -15 c 1
 520 102 544 193 591 297 c 1
 674 321 750 349 812 394 c 0
 859 429 901 507 901 602 c 0
 901 614 902 626 901 638 c 8
 896 691 853 720 792 720 c 2
 101 720 l 1
EndSplineSet
LCarets2: 1 85 
EndChar

StartChar: resh
Encoding: 1512 1512 85
Width: 1040
GlyphClass: 2
Flags: W
HStem: 720 304<416.611 642.625> 1141 20G<325.5 404>
VStem: 725 205<151.932 630.47>
AnchorPoint: "A-8" 786 0 basechar 0
AnchorPoint: "A-63" 789 0 basechar 0
AnchorPoint: "A-62" 612.2 0 basechar 0
AnchorPoint: "A-61" 527.2 0 basechar 0
AnchorPoint: "A-59" 110.7 0 basechar 0
AnchorPoint: "A-21" -254.8 0 basechar 0
AnchorPoint: "A-20" 34.2002 0 basechar 0
AnchorPoint: "A-7" 582.45 0 basechar 0
AnchorPoint: "A-6" 637.7 0 basechar 0
AnchorPoint: "A-5" 756.7 0 basechar 0
AnchorPoint: "A-4" 790.7 0 basechar 0
LayerCount: 2
Fore
SplineSet
99 720 m 1
 167 870 264 1024 387 1161 c 1
 421 1024 438 1024 527 1024 c 2
 611 1024 l 2
 746 1024 883 949 913 800 c 0
 929 724 930 503 930 298 c 0
 930 254 930 212 930 171 c 1
 877 89 805 15 725 -43 c 1
 717 123 720 369 714 509 c 0
 705 697 577 720 524 720 c 2
 99 720 l 1
EndSplineSet
LCarets2: 1 72 
Substitution2: "'jalt' Wide Letter Alternatives in Hebrew subtable" resh.wide
EndChar

StartChar: shin
Encoding: 1513 1513 86
Width: 1370
GlyphClass: 2
Flags: W
HStem: -20 21G<445 566.5>
VStem: 586 257<666.265 919.35> 1005 245<535.014 798.989>
AnchorPoint: "A-8" 721 0 basechar 0
AnchorPoint: "A-63" 855 0 basechar 0
AnchorPoint: "A-62" 724.575 0 basechar 0
AnchorPoint: "A-61" 724.575 0 basechar 0
AnchorPoint: "A-59" 159.325 0 basechar 0
AnchorPoint: "A-21" -206.175 0 basechar 0
AnchorPoint: "A-20" 91.3252 0 basechar 0
AnchorPoint: "A-7" 724.575 0 basechar 0
AnchorPoint: "A-6" 724.575 0 basechar 0
AnchorPoint: "A-5" 655 0 basechar 0
AnchorPoint: "A-4" 655 0 basechar 0
LayerCount: 2
Fore
SplineSet
296 1118 m 1
 384 1044 449 752 484 568 c 1
 557 609 586 658 586 712 c 0
 586 756 566 804 535 855 c 1
 589 952 656 1038 744 1118 c 1
 813 1019 843 925 843 839 c 0
 843 655 706 505 514 410 c 1
 527 346 536 290 603 290 c 0
 644 290 690 312 730 330 c 0
 807 364 889 417 947 474 c 0
 989 515 1005 560 1005 616 c 0
 1005 634 1003 653 1000 674 c 0
 989 755 962 801 931 850 c 1
 994 956 1067 1041 1159 1118 c 1
 1216 1021 1250 909 1250 796 c 0
 1250 794 1250 793 1250 791 c 0
 1247 568 1142 340 1023 213 c 0
 893 77 622 -20 511 -20 c 0
 507 -20 503 -20 500 -20 c 0
 390 -14 355 133 330 241 c 8
 270 490 171 770 89 853 c 1
 139 954 224 1053 296 1118 c 1
EndSplineSet
LCarets2: 1 104 
EndChar

StartChar: tav
Encoding: 1514 1514 87
Width: 1257
GlyphClass: 2
Flags: W
HStem: 0 21G<79 502> 720 304<545 895.755> 1141 20G<311.5 383>
VStem: 980 188<150.723 469.625>
AnchorPoint: "A-8" 724 0 basechar 0
AnchorPoint: "A-3" 728 0 basechar 0
AnchorPoint: "A-63" 828 0 basechar 0
AnchorPoint: "A-62" 667.6 0 basechar 0
AnchorPoint: "A-61" 667.6 0 basechar 0
AnchorPoint: "A-59" 119.35 0 basechar 0
AnchorPoint: "A-21" -224.9 0 basechar 0
AnchorPoint: "A-20" 153.35 0 basechar 0
AnchorPoint: "A-7" 628 0 basechar 0
AnchorPoint: "A-6" 667.6 0 basechar 0
AnchorPoint: "A-5" 667.6 0 basechar 0
AnchorPoint: "A-4" 728 0 basechar 0
LayerCount: 2
Fore
SplineSet
545 720 m 17
 562 602 583 445 598 304 c 1
 578 200 532 83 472 0 c 1
 79 0 l 1
 112 109 151 213 209 304 c 1
 378 304 l 1
 367 426 334 614 301 720 c 1
 105 720 l 1
 170 879 257 1024 366 1161 c 1
 400 1024 417 1024 506 1024 c 2
 859 1024 l 2
 1021 1024 1117 1009 1136 751 c 10
 1136 751 1168 406 1168 171 c 1
 1112 82 1061 26 980 -43 c 1
 960 227 922 606 922 606 c 18
 917 668 878 720 818 720 c 2
 545 720 l 17
EndSplineSet
LCarets2: 1 91 
Substitution2: "'jalt' Wide Letter Alternatives in Hebrew subtable" tav.wide
EndChar

StartChar: geresh
Encoding: 1523 1523 91
Width: 399
VWidth: 1706
GlyphClass: 2
Flags: W
VStem: 139 262<938.629 1207.48>
LayerCount: 2
Fore
SplineSet
115 634 m 1
 101 637 64 654 51 665 c 1
 98 785 139 892 139 1014 c 0
 139 1064 132 1116 116 1173 c 1
 183 1251 253 1310 344 1366 c 1
 383 1308 401 1234 401 1155 c 0
 401 971 300 756 115 634 c 1
EndSplineSet
Validated: 1
EndChar

StartChar: zerononjoin
Encoding: 8204 8204 95
Width: 0
GlyphClass: 2
Flags: W
HStem: 1195 424
VStem: -213 426
LayerCount: 2
Fore
SplineSet
0 1512 m 1
 105 1619 l 1
 213 1515 l 1
 105 1407 l 1
 213 1299 l 1
 105 1195 l 1
 0 1301 l 1
 -109 1195 l 1
 -213 1301 l 1
 -106 1407 l 1
 -213 1513 l 1
 -109 1621 l 1
 0 1512 l 1
EndSplineSet
Validated: 1
EndChar

StartChar: zerojoin
Encoding: 8205 8205 96
Width: 0
GlyphClass: 2
Flags: W
HStem: 1396 242<-254 -106 106 254> 1489 149<-106 106>
VStem: -254 148<1396 1489> 106 148<1396 1489>
LayerCount: 2
Fore
SplineSet
106 1489 m 1x70
 -106 1489 l 1x70
 -106 1396 l 1
 -254 1396 l 1
 -254 1638 l 1
 254 1638 l 1
 254 1396 l 1
 106 1396 l 1xb0
 106 1489 l 1x70
EndSplineSet
Validated: 1
EndChar

StartChar: lrm
Encoding: 8206 8206 97
Width: 0
GlyphClass: 2
Flags: W
HStem: 1340 149<-236 -50>
VStem: -236 472
LayerCount: 2
Fore
SplineSet
-82 1520 m 1
 22 1628 l 1
 236 1414 l 1
 22 1200 l 1
 -82 1308 l 1
 -49 1340 l 1
 -236 1340 l 1
 -236 1489 l 1
 -50 1489 l 1
 -82 1520 l 1
EndSplineSet
Validated: 1
EndChar

StartChar: rlm
Encoding: 8207 8207 98
Width: 0
GlyphClass: 2
Flags: W
HStem: 1332 149<50 236>
VStem: -236 472
LayerCount: 2
Fore
SplineSet
82 1301 m 1
 -22 1193 l 1
 -236 1407 l 1
 -22 1621 l 1
 82 1513 l 1
 49 1481 l 1
 236 1481 l 1
 236 1332 l 1
 50 1332 l 1
 82 1301 l 1
EndSplineSet
Validated: 1
EndChar

StartChar: quoteleft
Encoding: 8216 8216 99
Width: 399
VWidth: 1706
GlyphClass: 2
Flags: W
VStem: 35 262<854.517 1073.24>
LayerCount: 2
Fore
SplineSet
320 1428 m 1
 385 1397 l 1
 338 1277 297 1170 297 1048 c 0
 297 998 304 946 320 889 c 1
 253 811 183 752 92 696 c 1
 53 754 35 828 35 907 c 0
 35 1091 267 1385 320 1428 c 1
EndSplineSet
Validated: 1
EndChar

StartChar: quoteright
Encoding: 8217 8217 100
Width: 399
VWidth: 1706
GlyphClass: 2
Flags: W
VStem: 139 262<988.762 1207.48>
LayerCount: 2
Fore
SplineSet
116 634 m 1
 51 665 l 1
 98 785 139 892 139 1014 c 0
 139 1064 132 1116 116 1173 c 1
 183 1251 253 1310 344 1366 c 1
 383 1308 401 1234 401 1155 c 0
 401 971 169 677 116 634 c 1
EndSplineSet
Validated: 1
EndChar

StartChar: quotesinglbase
Encoding: 8218 8218 101
Width: 384
GlyphClass: 2
Flags: W
VStem: 79 262<-61.2377 157.483>
LayerCount: 2
Fore
SplineSet
56 -416 m 1
 -9 -385 l 1
 38 -265 79 -158 79 -36 c 0
 79 14 72 66 56 123 c 1
 123 201 193 260 284 316 c 1
 323 258 341 184 341 105 c 0
 341 -79 109 -373 56 -416 c 1
EndSplineSet
Validated: 1
EndChar

StartChar: newshekel
Encoding: 8362 8362 105
Width: 1708
VWidth: 1706
GlyphClass: 2
Flags: W
HStem: -18 261<835.884 1087.49> 749 275<441.074 829.977>
VStem: 229 213<191.777 503.132> 580 224<270.905 535.258> 1377 238<433.922 863.097>
LayerCount: 2
Fore
SplineSet
742 -18 m 2
 630 -18 602 61 597 163 c 0
 589 330 582 428 580 601 c 1
 666 587 741 563 804 529 c 1
 806 463 811 386 821 333 c 0
 831 283 850 243 912 243 c 0
 918 243 924 243 930 244 c 0
 1011 253 1121 288 1203 333 c 0
 1328 400 1377 471 1377 558 c 0
 1377 629 1343 711 1292 811 c 1
 1350 928 1436 1043 1526 1118 c 1
 1573 1022 1615 866 1615 698 c 0
 1615 605 1602 508 1570 416 c 0
 1498 209 1359 -18 828 -18 c 8
 794 -18 742 -18 742 -18 c 2
546 1024 m 2
 546 1024 641 1024 724 1024 c 0
 1026 1024 1171 867 1203 638 c 0
 1207 613 1207 607 1208 591 c 1
 1156 514 1091 456 997 416 c 1
 976 579 920 681 814 712 c 0
 733 735 589 749 440 749 c 1
 440 749 442 422 442 222 c 1
 398 113 321 20 229 -43 c 1
 222 471 208 679 162 824 c 1
 224 942 311 1050 413 1133 c 1
 441 1041 457 1024 546 1024 c 2
EndSplineSet
Validated: 1
EndChar

StartChar: Euro
Encoding: 8364 8364 106
Width: 1066
VWidth: 1706
GlyphClass: 2
Flags: W
HStem: -28 252<578.101 864.325> 398 133<416 724.207> 632 133<363 802.853> 933 278<578.811 878.434>
VStem: 157 209<531.076 631.992>
LayerCount: 2
Fore
SplineSet
391 841 m 0
 377 827 368 799 363 765 c 1
 862 765 l 1
 846 714 824 673 793 632 c 1
 355 632 l 1
 356 597 359 563 366 531 c 1
 781 531 l 1
 766 481 744 434 713 398 c 1
 416 398 l 1
 420 392 423 386 427 381 c 0
 486 286 650 224 783 224 c 0
 832 224 881 227 926 237 c 1
 916 147 897 64 861 -22 c 1
 835 -27 803 -28 767 -28 c 0
 630 -28 455 4 317 129 c 0
 246 193 197 288 173 398 c 1
 119 398 l 1
 130 431 143 460 160 488 c 1
 158 509 157 531 157 552 c 0
 157 593 160 633 167 674 c 0
 196 848 391 1096 607 1179 c 0
 660 1200 733 1211 812 1211 c 0
 870 1211 931 1205 990 1191 c 1
 958 1094 915 1003 864 925 c 1
 818 931 770 933 729 933 c 0
 585 933 452 905 391 841 c 0
EndSplineSet
Validated: 1
EndChar

StartChar: dottedcircle
Encoding: 9676 9676 107
Width: 1150
GlyphClass: 2
Flags: W
HStem: 55 125<558.815 679.185> 109 125<357.9 478.185 759.815 880.1> 255 126<211.808 331.185 906.815 1026.19> 456 126<157.808 277.185 960.815 1080.19> 657 126<211.808 331.185 906.815 1026.19> 804 125<357.9 478.185 759.815 880.1> 858 125<558.815 679.185>
VStem: 155 125<458.815 579.185> 209 125<257.9 378.185 659.815 780.1> 355 126<111.808 231.185 806.815 926.192> 556 126<57.8081 177.185 860.815 980.192> 757 126<111.808 231.185 806.815 926.192> 904 125<257.9 378.185 659.815 780.1> 958 125<458.815 579.185>
AnchorPoint: "A-63" 750 0 basechar 0
AnchorPoint: "A-62" 656.075 0 basechar 0
AnchorPoint: "A-61" 656.075 0 basechar 0
AnchorPoint: "A-59" 93.375 0 basechar 0
AnchorPoint: "A-21" -272.125 0 basechar 0
AnchorPoint: "A-60" 622.075 0 basechar 0
AnchorPoint: "A-20" 25.375 0 basechar 0
AnchorPoint: "A-7" 600 0 basechar 0
AnchorPoint: "A-6" 622.075 0 basechar 0
AnchorPoint: "A-5" 600 0 basechar 0
AnchorPoint: "A-4" 622.075 0 basechar 0
AnchorPoint: "A-3" 610 0 basechar 0
LayerCount: 2
Fore
SplineSet
967 783 m 0x3878
 1001 783 1029 754 1029 720 c 0
 1029 685 1001 657 967 657 c 0
 932 657 904 685 904 720 c 0
 904 754 932 783 967 783 c 0x3878
820 234 m 0x7870
 854 234 883 206 883 171 c 0
 883 137 854 109 820 109 c 0
 785 109 757 137 757 171 c 0
 757 206 785 234 820 234 c 0x7870
271 381 m 0
 306 381 334 353 334 318 c 0
 334 284 306 255 271 255 c 0
 237 255 209 284 209 318 c 0x38f0
 209 353 237 381 271 381 c 0
418 929 m 0x3c70
 453 929 481 901 481 867 c 0
 481 832 453 804 418 804 c 0
 384 804 355 832 355 867 c 0
 355 901 384 929 418 929 c 0x3c70
271 783 m 0
 306 783 334 754 334 720 c 0
 334 685 306 657 271 657 c 0
 237 657 209 685 209 720 c 0x38f0
 209 754 237 783 271 783 c 0
418 234 m 0x7870
 453 234 481 206 481 171 c 0
 481 137 453 109 418 109 c 0
 384 109 355 137 355 171 c 0
 355 206 384 234 418 234 c 0x7870
967 381 m 0
 1001 381 1029 353 1029 318 c 0
 1029 284 1001 255 967 255 c 0
 932 255 904 284 904 318 c 0x3878
 904 353 932 381 967 381 c 0
820 929 m 0x3c70
 854 929 883 901 883 867 c 0
 883 832 854 804 820 804 c 0
 785 804 757 832 757 867 c 0
 757 901 785 929 820 929 c 0x3c70
619 180 m 0xb870
 654 180 682 152 682 117 c 0
 682 83 654 55 619 55 c 0
 584 55 556 83 556 117 c 0
 556 152 584 180 619 180 c 0xb870
1021 582 m 0
 1055 582 1083 554 1083 519 c 0
 1083 484 1055 456 1021 456 c 0
 986 456 958 484 958 519 c 0x3874
 958 554 986 582 1021 582 c 0
619 983 m 0x3a70
 654 983 682 955 682 921 c 0
 682 886 654 858 619 858 c 0
 584 858 556 886 556 921 c 0
 556 955 584 983 619 983 c 0x3a70
217 582 m 0
 252 582 280 554 280 519 c 0
 280 484 252 456 217 456 c 0
 183 456 155 484 155 519 c 0x3970
 155 554 183 582 217 582 c 0
EndSplineSet
Validated: 1
LCarets2: 1 93 
EndChar

StartChar: ayin.alt
Encoding: 64288 64288 111
Width: 1124
GlyphClass: 2
Flags: W
HStem: 0 21G<51 475.5>
VStem: 790 222<397.451 737.193>
AnchorPoint: "A-8" 648 0 basechar 0
AnchorPoint: "A-63" 700 0 basechar 0
AnchorPoint: "A-62" 493.15 0 basechar 0
AnchorPoint: "A-61" 493.15 0 basechar 0
AnchorPoint: "A-59" 76.6504 0 basechar 0
AnchorPoint: "A-21" -288.85 0 basechar 0
AnchorPoint: "A-20" 76.6504 0 basechar 0
AnchorPoint: "A-7" 493.15 0 basechar 0
AnchorPoint: "A-6" 493.15 0 basechar 0
AnchorPoint: "A-5" 430 0 basechar 0
AnchorPoint: "A-4" 493.15 0 basechar 0
AnchorPoint: "A-3" 645 10 basechar 0
LayerCount: 2
Fore
SplineSet
556 311 m 1
 720 325 790 414 790 541 c 0
 790 628 756 733 696 843 c 1
 754 952 817 1038 903 1118 c 1
 969 1011 1012 853 1012 682 c 0
 1012 575 995 463 956 355 c 0
 907 219 805 106 684 51 c 0
 628 26 538 0 413 0 c 2
 51 0 l 17
 84 113 131 212 198 304 c 9
 367 304 l 17
 309 529 198 671 67 826 c 1
 127 930 201 1024 295 1118 c 1
 445 887 515 521 556 311 c 1
EndSplineSet
Validated: 1
LCarets2: 1 77 
EndChar

StartChar: alef.wide
Encoding: 64289 64289 112
Width: 1896
GlyphClass: 2
Flags: W
HStem: 0 21G<85 487.5>
VStem: 1514 250<635.822 904.671>
AnchorPoint: "A-8" 970 0 basechar 0
AnchorPoint: "A-63" 952.6 0 basechar 0
AnchorPoint: "A-62" 952.6 0 basechar 0
AnchorPoint: "A-61" 952.6 0 basechar 0
AnchorPoint: "A-59" 162.1 0 basechar 0
AnchorPoint: "A-21" -203.4 0 basechar 0
AnchorPoint: "A-20" 170.6 0 basechar 0
AnchorPoint: "A-7" 952.6 0 basechar 0
AnchorPoint: "A-6" 975 0 basechar 0
AnchorPoint: "A-5" 952.6 0 basechar 0
AnchorPoint: "A-4" 952.6 0 basechar 0
AnchorPoint: "A-3" 969.6 -450 basechar 0
LayerCount: 2
Fore
SplineSet
267 1118 m 1
 455 900 1218 607 1462 504 c 1
 1496 554 1514 616 1514 676 c 0
 1514 745 1490 810 1439 848 c 1
 1490 953 1558 1037 1632 1102 c 1
 1723 1016 1764 920 1764 821 c 0
 1764 695 1697 563 1582 438 c 1
 1676 341 1766 308 1852 206 c 1
 1814 100 1763 16 1702 -60 c 1
 1517 230 725 492 452 596 c 1
 395 529 358 445 358 374 c 0
 358 371 358 367 358 363 c 0
 358 339 362 304 411 304 c 2
 580 304 l 1
 555 194 518 97 457 0 c 1
 85 0 l 1
 93 43 124 113 156 174 c 1
 177 257 165 313 185 399 c 16
 214 524 264 601 336 686 c 1
 250 752 180 806 105 853 c 1
 144 958 194 1044 267 1118 c 1
EndSplineSet
LCarets2: 1 137 
EndChar

StartChar: dalet.wide
Encoding: 64290 64290 113
Width: 1703
GlyphClass: 2
Flags: W
HStem: -11 21G<1226 1271> 752 304<380.122 1222 1442 1546.28>
VStem: 1230 209<190.05 752>
AnchorPoint: "A-8" 1326 0 basechar 0
AnchorPoint: "A-63" 1119.22 0 basechar 0
AnchorPoint: "A-62" 1034.22 0 basechar 0
AnchorPoint: "A-61" 949.22 0 basechar 0
AnchorPoint: "A-59" 48.2246 0 basechar 0
AnchorPoint: "A-21" -317.275 0 basechar 0
AnchorPoint: "A-20" -36.7754 0 basechar 0
AnchorPoint: "A-7" 1125 0 basechar 0
AnchorPoint: "A-6" 1085.22 0 basechar 0
AnchorPoint: "A-5" 1245 0 basechar 0
AnchorPoint: "A-4" 1325 0 basechar 0
AnchorPoint: "A-3" 825 0 basechar 0
LayerCount: 2
Fore
SplineSet
349 1194 m 1
 383 1057 400 1057 489 1057 c 2
 1282 1056 l 17
 1323 1109 1373 1153 1430 1193 c 1
 1435 1146 1437 1107 1440 1056 c 9
 1659 1056 l 17
 1638 954 1591 842 1539 752 c 9
 1442 752 l 25
 1442 752 1442 360 1439 206 c 1
 1383 120 1312 49 1230 -11 c 1
 1222 361 1222 752 1222 752 c 25
 102 752 l 1
 159 916 242 1057 349 1194 c 1
EndSplineSet
LCarets2: 1 123 
EndChar

StartChar: he.wide
Encoding: 64291 64291 114
Width: 1808
GlyphClass: 2
Flags: W
HStem: -28 21G<198 245 1469.5 1514> 735 304<418.213 1445.54>
VStem: 200 233<162.708 442.534> 1474 210<168.08 724.413>
AnchorPoint: "A-8" 919 0 basechar 0
AnchorPoint: "A-63" 835.875 0 basechar 0
AnchorPoint: "A-62" 835.875 0 basechar 0
AnchorPoint: "A-61" 835.875 0 basechar 0
AnchorPoint: "A-59" 53.875 0 basechar 0
AnchorPoint: "A-21" -311.625 0 basechar 0
AnchorPoint: "A-20" 53.875 0 basechar 0
AnchorPoint: "A-7" 917 0 basechar 0
AnchorPoint: "A-6" 917 0 basechar 0
AnchorPoint: "A-5" 867 0 basechar 0
AnchorPoint: "A-4" 917 0 basechar 0
AnchorPoint: "A-3" 917 0 basechar 0
LayerCount: 2
Fore
SplineSet
1684 767 m 10
 1684 767 1684 403 1684 187 c 1
 1633 106 1554 28 1474 -28 c 1
 1465 230 1460 651 1460 651 c 18
 1458 724 1424 735 1376 735 c 2
 100 735 l 1
 168 885 265 1039 388 1176 c 1
 421 1043 438 1039 521 1039 c 0
 528 1039 l 2
 1407 1040 l 2
 1622 1040 1684 927 1684 767 c 10
419 580 m 1
 429 548 433 462 433 363 c 0
 433 302 431 236 429 174 c 1
 367 93 290 27 200 -28 c 1
 196 73 194 142 194 208 c 0
 194 266 196 322 200 397 c 1
 260 468 334 528 419 580 c 1
EndSplineSet
LCarets2: 1 137 
EndChar

StartChar: kaf.wide
Encoding: 64292 64292 115
Width: 1634
GlyphClass: 2
Flags: W
HStem: 0 21G<77 1327> 283 20G<180.5 1212> 718 304<490.624 1252.47>
VStem: 1345 203<339.839 622.759>
AnchorPoint: "A-8" 807 0 basechar 0
AnchorPoint: "A-63" 673.525 0 basechar 0
AnchorPoint: "A-62" 673.525 0 basechar 0
AnchorPoint: "A-61" 673.525 0 basechar 0
AnchorPoint: "A-59" 27.5254 0 basechar 0
AnchorPoint: "A-21" -337.975 0 basechar 0
AnchorPoint: "A-20" 10.5254 0 basechar 0
AnchorPoint: "A-7" 807 0 basechar 0
AnchorPoint: "A-6" 707 0 basechar 0
AnchorPoint: "A-5" 707 0 basechar 0
AnchorPoint: "A-4" 673.525 0 basechar 0
AnchorPoint: "A-3" 807 0 basechar 0
LayerCount: 2
Fore
SplineSet
1212 302 m 2
 1315 302 1345 397 1345 477 c 0
 1345 501 1342 524 1338 542 c 0
 1311 653 1225 718 1104 718 c 0
 1103 718 1102 718 1101 718 c 10
 93 711 l 1
 146 874 238 1023 342 1152 c 1
 373 1028 902 1022 1066 1022 c 0
 1083 1022 1096 1022 1104 1022 c 2
 1159 1022 l 2
 1199 1022 1258 1017 1293 1007 c 0
 1454 960 1548 809 1548 612 c 0
 1548 402 1503 211 1414 66 c 0
 1379 8 1355 0 1299 0 c 2
 77 0 l 1
 102 102 151 209 210 303 c 1
 1212 302 l 2
EndSplineSet
LCarets2: 1 121 
EndChar

StartChar: lamed.wide
Encoding: 64293 64293 116
Width: 1651
GlyphClass: 2
Flags: W
HStem: 712 304<304.115 1291.07>
VStem: 110 193<1017.88 1128.64> 1295 241<599.684 912>
AnchorPoint: "A-8" 932 0 basechar 0
AnchorPoint: "A-63" 851.75 0 basechar 0
AnchorPoint: "A-62" 851.75 0 basechar 0
AnchorPoint: "A-61" 851.75 0 basechar 0
AnchorPoint: "A-59" 61.25 0 basechar 0
AnchorPoint: "A-21" -304.25 0 basechar 0
AnchorPoint: "A-20" -226.9 0 basechar 0
AnchorPoint: "A-7" 848 0 basechar 0
AnchorPoint: "A-6" 848 0 basechar 0
AnchorPoint: "A-5" 936.75 0 basechar 0
AnchorPoint: "A-4" 848 0 basechar 0
AnchorPoint: "A-3" 848 0 basechar 0
LayerCount: 2
Fore
SplineSet
261 1395 m 1
 312 1344 300 1217 303 1103 c 0
 303 1100 303 1096 303 1093 c 0
 303 1090 303 1088 303 1086 c 0
 303 1049 305 1016 370 1016 c 2
 1443 1013 l 2
 1529 1013 1536 936 1536 888 c 0
 1536 796 1517 653 1481 539 c 0
 1430 378 1373 219 1140 78 c 8
 1019 5 913 -23 795 -38 c 1
 815 77 851 184 909 293 c 1
 1013 327 1133 347 1218 419 c 0
 1274 467 1295 535 1295 626 c 0
 1295 665 1293 709 1221 709 c 2
 184 712 l 2
 129 712 110 729 110 803 c 0
 110 897 110 933 110 1016 c 16
 110 1074 110 1082 51 1145 c 1
 101 1234 181 1326 261 1395 c 1
EndSplineSet
LCarets2: 1 113 
EndChar

StartChar: finalmem.wide
Encoding: 64294 64294 117
Width: 1857
GlyphClass: 2
Flags: W
HStem: 3 304<447.701 1559.42> 723 304<401.637 1510.61> 1144 20G<304.5 378>
VStem: 223 178<356.4 721.436> 1562 191<299.465 668.666>
AnchorPoint: "A-8" 994 0 basechar 0
AnchorPoint: "A-63" 869.3 0 basechar 0
AnchorPoint: "A-62" 869.3 0 basechar 0
AnchorPoint: "A-61" 869.3 0 basechar 0
AnchorPoint: "A-59" 121.3 0 basechar 0
AnchorPoint: "A-21" -244.2 0 basechar 0
AnchorPoint: "A-20" 87.2998 0 basechar 0
AnchorPoint: "A-7" 939 0 basechar 0
AnchorPoint: "A-6" 979 0 basechar 0
AnchorPoint: "A-5" 989 0 basechar 0
AnchorPoint: "A-4" 989 0 basechar 0
AnchorPoint: "A-3" 939 0 basechar 0
LayerCount: 2
Fore
SplineSet
401 723 m 1
 404 631 401 537 424 426 c 8
 438 358 449 308 558 307 c 2
 1513 299 l 2
 1562 299 1561 331 1562 364 c 0
 1563 382 1562 399 1562 415 c 0
 1562 488 1555 550 1541 626 c 0
 1533 669 1490 715 1391 715 c 2
 401 723 l 1
1753 504 m 0
 1753 348 1734 174 1702 108 c 0
 1667 35 1608 -5 1514 -5 c 2
 385 3 l 2
 273 4 245 82 240 184 c 0
 232 351 225 491 223 663 c 0
 223 666 223 670 223 674 c 0
 223 695 218 723 155 723 c 10
 97 723 l 1
 165 885 248 1022 361 1164 c 1
 395 1027 412 1028 501 1027 c 2
 1514 1019 l 2
 1609 1019 1668 979 1703 906 c 0
 1735 840 1753 662 1753 504 c 0
EndSplineSet
LCarets2: 1 132 
EndChar

StartChar: resh.wide
Encoding: 64295 64295 118
Width: 1701
GlyphClass: 2
Flags: W
HStem: 729 304<416.611 1303.63> 1150 20G<325.5 404>
VStem: 1386 205<158.932 637.47>
AnchorPoint: "A-8" 1479 0 basechar 0
AnchorPoint: "A-63" 1216.35 0 basechar 0
AnchorPoint: "A-62" 1131.35 0 basechar 0
AnchorPoint: "A-61" 1046.35 0 basechar 0
AnchorPoint: "A-59" 94.3496 0 basechar 0
AnchorPoint: "A-21" -271.15 0 basechar 0
AnchorPoint: "A-20" 17.8496 0 basechar 0
AnchorPoint: "A-7" 1276 0 basechar 0
AnchorPoint: "A-6" 1276 0 basechar 0
AnchorPoint: "A-5" 1426 0 basechar 0
AnchorPoint: "A-4" 1476 0 basechar 0
AnchorPoint: "A-3" 876 0 basechar 0
LayerCount: 2
Fore
SplineSet
99 729 m 1
 167 879 264 1033 387 1170 c 1
 421 1033 438 1033 527 1033 c 2
 1272 1031 l 2
 1407 1031 1544 956 1574 807 c 0
 1590 731 1591 510 1591 305 c 0
 1591 261 1591 219 1591 178 c 1
 1538 96 1466 22 1386 -36 c 1
 1378 130 1381 376 1375 516 c 0
 1366 704 1238 729 1185 729 c 2
 99 729 l 1
EndSplineSet
LCarets2: 1 118 
EndChar

StartChar: tav.wide
Encoding: 64296 64296 119
Width: 1954
GlyphClass: 2
Flags: W
HStem: 0 21G<79 502> 720 304<545 1592.76> 1141 20G<311.5 383>
VStem: 1677 188<150.723 469.625>
AnchorPoint: "A-8" 1103 0 basechar 0
AnchorPoint: "A-63" 896.67 0 basechar 0
AnchorPoint: "A-62" 896.67 0 basechar 0
AnchorPoint: "A-61" 896.67 0 basechar 0
AnchorPoint: "A-59" 38.1748 0 basechar 0
AnchorPoint: "A-21" -306.075 0 basechar 0
AnchorPoint: "A-20" 72.1748 0 basechar 0
AnchorPoint: "A-7" 896.67 0 basechar 0
AnchorPoint: "A-6" 1095 0 basechar 0
AnchorPoint: "A-5" 1095 0 basechar 0
AnchorPoint: "A-4" 1045 0 basechar 0
AnchorPoint: "A-3" 1045 0 basechar 0
LayerCount: 2
Fore
SplineSet
545 720 m 17
 562 602 583 445 598 304 c 1
 578 200 532 83 472 0 c 1
 79 0 l 1
 112 109 151 213 209 304 c 1
 378 304 l 1
 367 426 334 614 301 720 c 1
 105 720 l 1
 170 879 257 1024 366 1161 c 1
 400 1024 417 1024 506 1024 c 2
 1556 1024 l 2
 1718 1024 1814 1009 1833 751 c 10
 1833 751 1865 406 1865 171 c 1
 1809 82 1758 26 1677 -43 c 1
 1657 227 1619 606 1619 606 c 18
 1614 668 1575 720 1515 720 c 2
 545 720 l 17
EndSplineSet
LCarets2: 1 143 
EndChar

StartChar: hebrewplussign
Encoding: 64297 64297 120
Width: 1225
VWidth: 1822
GlyphClass: 2
Flags: W
HStem: 453 221<221.929 507 717 999.259> 990 20G<675 717>
VStem: 507 210<674 943.247>
LayerCount: 2
Fore
SplineSet
992 453 m 1
 157 453 l 1
 172 531 185 606 230 674 c 1
 507 674 l 1
 507 936 l 1
 570 976 633 994 717 1010 c 1
 717 674 l 1
 1068 674 l 1
 1051 590 1032 516 992 453 c 1
EndSplineSet
Validated: 1
EndChar

StartChar: aleflamed
Encoding: 64335 64335 153
Width: 1169
GlyphClass: 3
Flags: W
VStem: 85 193<909.809 1137.62> 839 234<678.544 919.21>
AnchorPoint: "A-63" 880 0 basechar 0
AnchorPoint: "A-62" 1040 0 basechar 0
AnchorPoint: "A-61" 1100 0 basechar 0
AnchorPoint: "A-20" 160 0 basechar 0
AnchorPoint: "A-7" 642 0 basechar 0
AnchorPoint: "A-6" 700 0 basechar 0
AnchorPoint: "A-5" 690 0 basechar 0
AnchorPoint: "A-4" 640 0 basechar 0
LayerCount: 2
Fore
SplineSet
85 764 m 0
 85 858 85 922 85 1024 c 16
 85 1082 85 1091 26 1154 c 1
 76 1243 156 1334 236 1403 c 1
 274 1365 279 1261 279 1137 c 0
 279 1094 278 1047 278 1001 c 0
 278 959 298 925 338 898 c 0
 495 794 633 692 785 567 c 1
 822 618 839 662 839 702 c 0
 839 762 801 812 739 864 c 1
 790 969 858 1053 932 1118 c 1
 1028 1024 1073 934 1073 842 c 0
 1073 729 1006 613 882 483 c 1
 995 387 1068 317 1152 222 c 1
 1114 116 1063 32 1002 -44 c 1
 719 278 430 481 150 658 c 0
 109 683 85 720 85 764 c 0
EndSplineSet
Validated: 1
Ligature2: "'ccmp' Alef Lamed Ligature subtable" alef cgj lamed
Ligature2: "'ccmp' Alef Lamed Ligature subtable" alef .null lamed
LCarets2: 2 0 0 
Ligature2: "'ccmp' Alef Lamed Ligature subtable" alef zerojoin lamed
EndChar

StartChar: hatafsegol_meteg
Encoding: 65542 -1 159
Width: 0
GlyphClass: 4
Flags: W
HStem: -528 397<58 220>
VStem: 58 162<-533.675 -125.325>
AnchorPoint: "A-7" 0 0 mark 0
LayerCount: 2
Fore
SplineSet
220 -528 m 1
 192 -533 168 -535 140 -535 c 0
 110 -535 86 -533 58 -528 c 1
 58 -131 l 1
 86 -126 110 -124 140 -124 c 0
 168 -124 192 -126 220 -131 c 1
 220 -528 l 1
-504 -223 m 1
 -478 -175 -442 -143 -396 -114 c 1
 -350 -143 -316 -175 -290 -223 c 1
 -316 -269 -350 -303 -396 -330 c 1
 -442 -303 -478 -269 -504 -223 c 1
-218 -223 m 1
 -192 -175 -158 -143 -112 -114 c 1
 -66 -143 -32 -175 -4 -223 c 1
 -32 -269 -66 -303 -112 -330 c 1
 -158 -303 -192 -269 -218 -223 c 1
-362 -475 m 1
 -334 -428 -300 -395 -254 -366 c 1
 -208 -395 -174 -428 -146 -475 c 1
 -174 -522 -208 -556 -254 -583 c 1
 -300 -556 -334 -522 -362 -475 c 1
290 -223 m 1
 316 -175 350 -143 396 -114 c 1
 442 -143 478 -175 504 -223 c 1
 478 -269 442 -303 396 -330 c 1
 350 -303 316 -269 290 -223 c 1
290 -475 m 1
 316 -428 350 -395 396 -366 c 1
 442 -395 478 -428 504 -475 c 1
 478 -522 442 -556 396 -583 c 1
 350 -556 316 -522 290 -475 c 1
EndSplineSet
Validated: 1
Ligature2: "'ccmp' Hataf CGJ Meteg substitutions subtable" hatafsegol cgj meteg
Ligature2: "'ccmp' Hataf CGJ Meteg substitutions subtable" hatafsegol .null meteg
Ligature2: "'ccmp' Hataf CGJ Meteg substitutions subtable" hatafsegol zerojoin meteg
LCarets2: 1 0 
EndChar

StartChar: hatafpatah_meteg
Encoding: 65543 -1 160
Width: 0
GlyphClass: 4
Flags: W
HStem: -528 397<58 220> -320 162<-456.913 -47.2054>
VStem: 58 162<-533.675 -125.325>
AnchorPoint: "A-7" 0.525391 0 mark 0
LayerCount: 2
Fore
SplineSet
-54 -320 m 1x60
 -504 -320 l 1
 -504 -260 -480 -210 -450 -158 c 1
 0 -158 l 1
 -7 -218 -24 -267 -54 -320 c 1x60
220 -528 m 1xa0
 192 -533 168 -535 140 -535 c 0
 110 -535 86 -533 58 -528 c 1
 58 -131 l 1
 86 -126 110 -124 140 -124 c 0
 168 -124 192 -126 220 -131 c 1
 220 -528 l 1xa0
290 -223 m 1
 316 -175 350 -143 396 -114 c 1
 442 -143 478 -175 504 -223 c 1
 478 -269 442 -303 396 -330 c 1
 350 -303 316 -269 290 -223 c 1
290 -475 m 1
 316 -428 350 -395 396 -366 c 1
 442 -395 478 -428 504 -475 c 1
 478 -522 442 -556 396 -583 c 1
 350 -556 316 -522 290 -475 c 1
EndSplineSet
Validated: 1
Ligature2: "'ccmp' Hataf CGJ Meteg substitutions subtable" hatafpatah cgj meteg
Ligature2: "'ccmp' Hataf CGJ Meteg substitutions subtable" hatafpatah .null meteg
Ligature2: "'ccmp' Hataf CGJ Meteg substitutions subtable" hatafpatah zerojoin meteg
LCarets2: 1 1 
EndChar

StartChar: hatafqamats_meteg
Encoding: 65544 -1 161
Width: 0
GlyphClass: 4
Flags: W
HStem: -528 397<58 220> -316 162<-456.795 -315 -153 -61.2054>
VStem: -315 162<-509.852 -316> 58 162<-533.675 -125.325>
AnchorPoint: "A-7" 0.299805 0 mark 0
LayerCount: 2
Fore
SplineSet
-504 -316 m 1x70
 -497 -256 -480 -206 -450 -154 c 1
 -14 -154 l 1
 -21 -214 -38 -263 -68 -316 c 9
 -153 -316 l 1
 -153 -505 l 1
 -181 -509 -205 -511 -234 -511 c 0
 -263 -511 -287 -509 -315 -505 c 1
 -315 -316 l 1
 -504 -316 l 1x70
220 -528 m 1xb0
 192 -533 168 -535 140 -535 c 0
 110 -535 86 -533 58 -528 c 1
 58 -131 l 1
 86 -126 110 -124 140 -124 c 0
 168 -124 192 -126 220 -131 c 1
 220 -528 l 1xb0
290 -223 m 1
 316 -175 350 -143 396 -114 c 1
 442 -143 478 -175 504 -223 c 1
 478 -269 442 -303 396 -330 c 1
 350 -303 316 -269 290 -223 c 1
290 -475 m 1
 316 -428 350 -395 396 -366 c 1
 442 -395 478 -428 504 -475 c 1
 478 -522 442 -556 396 -583 c 1
 350 -556 316 -522 290 -475 c 1
EndSplineSet
Validated: 1
Ligature2: "'ccmp' Hataf CGJ Meteg substitutions subtable" hatafqamats cgj meteg
Ligature2: "'ccmp' Hataf CGJ Meteg substitutions subtable" hatafqamats .null meteg
Ligature2: "'ccmp' Hataf CGJ Meteg substitutions subtable" hatafqamats zerojoin meteg
LCarets2: 1 0 
EndChar

StartChar: hatafsegol_leftmeteg
Encoding: 65545 -1 162
Width: 0
Flags: W
HStem: -563 397<-504 -342>
VStem: -504 162<-568.768 -160.232>
AnchorPoint: "A-7" 0 0 mark 0
LayerCount: 2
Fore
SplineSet
-342 -563 m 1
 -370 -568 -394 -570 -423 -570 c 0
 -452 -570 -476 -568 -504 -563 c 1
 -504 -166 l 1
 -476 -161 -452 -159 -423 -159 c 0
 -394 -159 -370 -161 -342 -166 c 1
 -342 -563 l 1
-264 -218 m 1
 -237 -170 -216 -144 -170 -115 c 1
 -124 -144 -90 -176 -63 -224 c 1
 -90 -270 -124 -304 -170 -331 c 1
 -216 -304 -237 -264 -264 -218 c 1
8 -224 m 1
 35 -176 69 -144 115 -115 c 1
 161 -144 195 -176 223 -224 c 1
 195 -270 161 -304 115 -331 c 1
 69 -304 35 -270 8 -224 c 1
-135 -476 m 1
 -108 -429 -74 -396 -28 -367 c 1
 18 -396 53 -429 80 -476 c 1
 53 -523 18 -557 -28 -584 c 1
 -74 -557 -108 -523 -135 -476 c 1
290 -223 m 1
 316 -175 350 -143 396 -114 c 1
 442 -143 478 -175 504 -223 c 1
 478 -269 442 -303 396 -330 c 1
 350 -303 316 -269 290 -223 c 1
290 -475 m 1
 316 -428 350 -395 396 -366 c 1
 442 -395 478 -428 504 -475 c 1
 478 -522 442 -556 396 -583 c 1
 350 -556 316 -522 290 -475 c 1
EndSplineSet
Validated: 1
Ligature2: "'ccmp' Hataf Meteg substitutions subtable" hatafsegol meteg
LCarets2: 2 0 0 
EndChar

StartChar: hatafpatah_leftmeteg
Encoding: 65546 -1 163
Width: 0
GlyphClass: 4
Flags: W
HStem: -552 397<-504 -342> -318 161<-226.775 178.913>
VStem: -504 162<-557.768 -149.232>
AnchorPoint: "A-7" 0.525391 0 mark 0
LayerCount: 2
Fore
SplineSet
172 -318 m 1x60
 -278 -318 l 1
 -271 -258 -254 -209 -224 -157 c 1
 226 -157 l 1
 226 -217 202 -265 172 -318 c 1x60
-342 -552 m 1xa0
 -370 -557 -394 -559 -423 -559 c 0
 -452 -559 -476 -557 -504 -552 c 1
 -504 -155 l 1
 -476 -150 -452 -148 -423 -148 c 0
 -394 -148 -370 -150 -342 -155 c 1
 -342 -552 l 1xa0
290 -223 m 1
 316 -175 350 -143 396 -114 c 1
 442 -143 478 -175 504 -223 c 1
 478 -269 442 -303 396 -330 c 1
 350 -303 316 -269 290 -223 c 1
290 -475 m 1
 316 -428 350 -395 396 -366 c 1
 442 -395 478 -428 504 -475 c 1
 478 -522 442 -556 396 -583 c 1
 350 -556 316 -522 290 -475 c 1
EndSplineSet
Validated: 1
Ligature2: "'ccmp' Hataf Meteg substitutions subtable" hatafpatah meteg
LCarets2: 2 0 0 
EndChar

StartChar: hatafqamats_leftmeteg
Encoding: 65547 -1 164
Width: 0
GlyphClass: 4
Flags: W
HStem: -567 411<-504 -342> -318 162<-212.778 -70 92 182.913>
VStem: -504 162<-565.675 -157.325> -70 162<-511.768 -318>
AnchorPoint: "A-7" 0.799805 0 mark 0
LayerCount: 2
Fore
SplineSet
-260 -318 m 1x70
 -252 -258 -236 -208 -206 -156 c 1
 230 -156 l 1
 230 -216 206 -265 176 -318 c 9
 92 -318 l 1
 92 -507 l 1
 64 -511 40 -513 10 -513 c 0
 -18 -513 -42 -511 -70 -507 c 1
 -70 -318 l 1
 -260 -318 l 1x70
-342 -560 m 1
 -370 -565 -394 -567 -424 -567 c 0
 -452 -567 -476 -565 -504 -560 c 1
 -504 -163 l 1
 -476 -158 -452 -156 -424 -156 c 0xb0
 -394 -156 -370 -158 -342 -163 c 1
 -342 -560 l 1
290 -223 m 1
 316 -175 350 -143 396 -114 c 1
 442 -143 478 -175 504 -223 c 1
 478 -269 442 -303 396 -330 c 1
 350 -303 316 -269 290 -223 c 1
290 -475 m 1
 316 -428 350 -395 396 -366 c 1
 442 -395 478 -428 504 -475 c 1
 478 -522 442 -556 396 -583 c 1
 350 -556 316 -522 290 -475 c 1
EndSplineSet
Validated: 1
Ligature2: "'ccmp' Hataf Meteg substitutions subtable" hatafqamats meteg
LCarets2: 1 0 
EndChar

StartChar: exclam
Encoding: 33 33 165
Width: 610
VWidth: 1706
Flags: W
VStem: 176 275<669.108 1116.88>
LayerCount: 2
Fore
SplineSet
307 362 m 1
 394 305 450 249 509 160 c 1
 458 82 395 15 329 -34 c 1
 245 15 174 83 119 164 c 1
 169 241 239 321 307 362 c 1
176 1103 m 1
 249 1177 358 1252 451 1283 c 1
 435 932 441 727 418 606 c 1
 384 556 317 490 270 466 c 1
 194 601 176 817 176 1017 c 0
 176 1036 176 1056 176 1075 c 0
 176 1084 176 1094 176 1103 c 1
EndSplineSet
Validated: 1
EndChar

StartChar: quotedbl
Encoding: 34 34 166
Width: 827
VWidth: 1706
Flags: W
VStem: 139 262<933.187 1208.2> 567 261<938.971 1209.52>
LayerCount: 2
Fore
SplineSet
116 1172 m 1
 173 1252 255 1318 344 1365 c 1
 383 1307 401 1233 401 1154 c 0
 401 970 301 755 116 633 c 1
 100 633 62 655 51 664 c 1
 98 784 139 891 139 1013 c 0
 139 1063 132 1115 116 1172 c 1
544 1173 m 1
 599 1249 680 1314 771 1366 c 1
 809 1308 828 1235 828 1156 c 0
 828 972 727 756 541 634 c 1
 540 634 540 634 539 634 c 0
 522 634 490 654 479 665 c 1
 526 785 567 892 567 1014 c 0
 567 1064 560 1116 544 1173 c 1
EndSplineSet
Validated: 1
EndChar

StartChar: numbersign
Encoding: 35 35 167
Width: 1256
VWidth: 1706
Flags: W
HStem: 289 200<148.787 272 524 687 940 1064.9> 715 201<251.776 390 644 805 1059 1167.9>
LayerCount: 2
Fore
SplineSet
478 289 m 1
 405 -60 l 1
 361 -66 319 -70 275 -70 c 0
 235 -70 194 -67 149 -60 c 1
 196 64 237 180 272 289 c 1
 85 289 l 1
 101 360 121 428 155 489 c 1
 331 488 l 1
 352 563 372 641 390 715 c 1
 188 715 l 1
 203 787 224 855 258 916 c 1
 434 916 l 1
 501 1242 l 1
 538 1249 581 1252 625 1252 c 0
 669 1252 715 1249 759 1242 c 1
 715 1126 675 1012 644 916 c 1
 850 916 l 1
 871 1017 894 1129 916 1242 c 1
 954 1249 996 1252 1040 1252 c 0
 1084 1252 1130 1249 1174 1242 c 1
 1129 1124 1091 1013 1059 916 c 1
 1231 916 l 1
 1214 840 1191 773 1161 715 c 1
 997 715 l 1
 976 641 957 564 940 488 c 1
 1128 489 l 1
 1111 413 1088 346 1058 289 c 1
 894 289 l 1
 820 -60 l 1
 776 -66 734 -70 690 -70 c 0
 650 -70 609 -67 564 -60 c 1
 611 62 652 179 687 289 c 1
 478 289 l 1
524 489 m 1
 746 489 l 1
 767 564 787 641 805 715 c 1
 582 715 l 1
 562 642 542 564 524 489 c 1
EndSplineSet
Validated: 1
EndChar

StartChar: dollar
Encoding: 36 36 168
Width: 1119
VWidth: 1706
Flags: W
HStem: -23 250<294.872 517> 12 227<655 757.79> 459 256<655 772.503> 959 219<411.288 517> 966 242<655 843.929>
VStem: 173 167<742.5 914.826> 517 138<-141.792 -18 239 459 760 959 1206 1325.59> 827 174<281.489 461>
LayerCount: 2
Fore
SplineSet
655 1206 m 1xb7
 676 1207 697 1208 719 1208 c 0
 821 1208 892 1196 969 1163 c 1
 954 1105 871 981 846 946 c 1
 802 960 747 966 689 966 c 0
 677 966 666 966 655 966 c 1
 655 715 l 1
 733 690 811 662 866 631 c 0
 950 584 1001 512 1001 410 c 0
 1001 317 968 203 833 104 c 0
 780 64 720 33 655 12 c 1x6f
 655 -135 l 1
 610 -160 567 -176 517 -181 c 1
 517 -18 l 1
 484 -22 451 -23 416 -23 c 0
 315 -22 189 11 137 33 c 1
 176 116 232 195 293 260 c 1
 332 247 432 227 517 227 c 1
 517 495 l 1
 448 515 376 539 308 577 c 0
 221 625 173 693 173 792 c 0
 173 881 205 992 340 1089 c 0
 394 1127 452 1158 517 1178 c 1
 517 1318 l 1
 558 1342 605 1358 655 1364 c 1
 655 1206 l 1xb7
517 959 m 1x37
 449 950 393 930 350 889 c 0
 343 883 340 876 340 869 c 0
 340 844 377 816 418 797 c 0
 446 784 480 772 517 760 c 1
 517 959 l 1x37
655 239 m 1x67
 728 252 795 276 817 308 c 0
 824 318 827 329 827 339 c 0
 827 373 795 406 757 424 c 0
 728 437 694 448 655 459 c 1
 655 239 l 1x67
EndSplineSet
Validated: 1
EndChar

StartChar: percent
Encoding: 37 37 169
Width: 1360
VWidth: 1706
Flags: W
HStem: 1008 210<271.664 356.391>
VStem: 102 156<782.749 1002.76> 422 148<667.027 919.447> 791 156<254.805 476.719> 1111 147<140.271 396.26>
LayerCount: 2
Fore
SplineSet
948 477 m 1
 947 471 947 465 947 457 c 0
 947 411 963 332 992 252 c 0
 1008 209 1033 163 1058 143 c 0
 1095 115 1105 153 1108 176 c 0
 1110 189 1111 201 1111 213 c 0
 1111 254 1101 294 1086 346 c 0
 1055 457 1006 481 972 481 c 0
 963 481 954 479 948 477 c 1
983 687 m 1
 1001 690 1019 691 1037 691 c 0
 1150 691 1258 627 1258 373 c 0
 1258 363 1258 353 1258 343 c 0
 1258 156 1169 -38 1020 -38 c 0
 1018 -38 1016 -38 1014 -38 c 0
 856 -38 791 97 791 271 c 0
 791 284 791 297 791 310 c 0
 791 548 880 609 983 687 c 1
259 1003 m 1
 258 998 258 991 258 984 c 0
 258 938 275 859 304 779 c 0
 320 735 345 689 370 670 c 0
 407 641 419 679 422 702 c 0
 424 714 422 726 422 738 c 0
 422 780 413 820 398 872 c 0
 367 983 319 1008 284 1008 c 0
 274 1008 266 1006 259 1003 c 1
295 1213 m 1
 313 1216 332 1218 350 1218 c 0
 462 1218 570 1152 570 896 c 0
 570 887 570 878 570 869 c 0
 570 683 481 489 331 489 c 0
 329 489 327 489 325 489 c 0
 168 489 102 623 102 798 c 0
 102 810 102 823 102 836 c 0
 102 1074 192 1136 295 1213 c 1
925 1213 m 1
 971 1220 1018 1224 1064 1224 c 0
 1109 1224 1154 1220 1196 1213 c 1
 855 724 724 483 434 -23 c 1
 392 -31 349 -34 306 -34 c 0
 259 -34 212 -30 165 -23 c 1
 484 434 670 758 925 1213 c 1
EndSplineSet
Validated: 1
EndChar

StartChar: ampersand
Encoding: 38 38 170
Width: 1264
VWidth: 1706
Flags: W
HStem: -20 138<410.787 655.786> 0 82<1094 1236> 572 78<857 937.64 1135.46 1213> 1070 97<418.064 619.332>
VStem: 90 215<227.485 474.408> 172 209<802.521 1024.87> 662 198<752.979 1027.08>
LayerCount: 2
Fore
SplineSet
541 676 m 1x36
 625 739 662 800 662 889 c 0
 662 1002 606 1070 519 1070 c 0
 440 1070 381 1010 381 927 c 0
 381 845 439 771 541 676 c 1x36
606 616 m 1
 874 335 l 1
 922 396 952 461 968 527 c 1
 947 556 l 1
 857 572 l 1
 857 650 l 1
 1213 650 l 1
 1213 572 l 1
 1094 550 l 1
 1056 437 1005 343 939 265 c 1
 1094 94 l 1
 1236 82 l 1
 1236 0 l 1
 877 0 l 1x76
 877 41 l 1
 806 123 l 1
 696 27 579 -20 449 -20 c 0
 237 -20 90 125 90 316 c 0xba
 90 459 169 558 328 609 c 1
 224 693 172 780 172 879 c 0
 172 1044 316 1167 531 1167 c 0
 734 1167 860 1055 860 905 c 0
 860 765 778 672 606 616 c 1
398 553 m 1
 338 507 305 449 305 384 c 0
 305 225 408 118 556 118 c 0xba
 623 118 683 142 739 191 c 1
 398 553 l 1
EndSplineSet
Validated: 1
EndChar

StartChar: quotesingle
Encoding: 39 39 171
Width: 399
VWidth: 1706
Flags: W
VStem: 139 262<988.762 1207.48>
LayerCount: 2
Fore
SplineSet
116 634 m 1
 51 665 l 1
 98 785 139 892 139 1014 c 0
 139 1064 132 1116 116 1173 c 1
 183 1251 253 1310 344 1366 c 1
 383 1308 401 1234 401 1155 c 0
 401 971 169 677 116 634 c 1
EndSplineSet
Validated: 1
EndChar

StartChar: parenleft
Encoding: 40 40 172
Width: 740
VWidth: 1706
Flags: W
VStem: 171 244<338.209 752.59>
LayerCount: 2
Fore
SplineSet
415 1196 m 1
 489 1234 613 1258 699 1272 c 1
 520 965 415 762 415 562 c 0
 415 405 480 249 625 47 c 1
 598 -45 548 -137 486 -211 c 1
 265 -0 171 224 171 460 c 0
 171 695 263 941 415 1196 c 1
EndSplineSet
Validated: 1
EndChar

StartChar: parenright
Encoding: 41 41 173
Width: 711
VWidth: 1706
Flags: W
VStem: 333 242<291.641 711.311>
LayerCount: 2
Fore
SplineSet
350 -131 m 1
 277 -170 154 -197 68 -214 c 1
 234 90 333 293 333 488 c 0
 333 650 265 807 110 1012 c 1
 135 1105 182 1198 242 1274 c 1
 477 1062 575 832 575 588 c 0
 575 360 490 120 350 -131 c 1
EndSplineSet
Validated: 1
EndChar

StartChar: asterisk
Encoding: 42 42 174
Width: 974
VWidth: 1672
Flags: W
LayerCount: 2
Fore
SplineSet
839 861 m 1
 882 820 916 738 916 647 c 0
 916 634 916 621 914 607 c 1
 628 573 l 1
 831 365 l 1
 790 300 703 243 622 218 c 1
 497 457 l 1
 376 215 l 1
 297 243 209 300 167 365 c 1
 373 573 l 1
 86 607 l 1
 85 616 85 625 85 634 c 0
 85 728 117 818 162 861 c 1
 411 749 l 1
 367 1022 l 1
 405 1042 454 1052 502 1052 c 0
 549 1052 596 1042 634 1022 c 1
 590 753 l 1
 839 861 l 1
EndSplineSet
Validated: 1
EndChar

StartChar: plus
Encoding: 43 43 175
Width: 1225
VWidth: 1822
Flags: W
HStem: 453 221<221.929 507 717 999.259> 990 20G<675 717>
VStem: 507 210<183.907 453 674 943.247>
LayerCount: 2
Fore
SplineSet
717 192 m 1
 649 147 585 132 507 117 c 1
 507 453 l 1
 157 453 l 1
 172 531 185 606 230 674 c 1
 507 674 l 1
 507 936 l 1
 570 976 633 994 717 1010 c 1
 717 674 l 1
 1068 674 l 1
 1051 590 1032 516 992 453 c 1
 717 453 l 1
 717 192 l 1
EndSplineSet
Validated: 1
EndChar

StartChar: comma
Encoding: 44 44 176
Width: 481
VWidth: 1706
Flags: W
VStem: 150 248<-107.683 205.979>
LayerCount: 2
Fore
SplineSet
111 158 m 1
 170 242 235 307 321 370 c 1
 372 306 398 217 398 120 c 0
 398 -54 316 -253 156 -379 c 1
 155 -379 154 -379 153 -379 c 0
 137 -379 103 -362 90 -354 c 1
 122 -247 150 -150 150 -47 c 0
 150 18 139 85 111 158 c 1
EndSplineSet
Validated: 1
EndChar

StartChar: hyphen
Encoding: 45 45 177
Width: 849
VWidth: 1706
Flags: W
HStem: 371 273<200.88 673.761>
VStem: 102 672
LayerCount: 2
Fore
SplineSet
102 371 m 1
 118 465 150 550 209 644 c 1
 774 644 l 1
 755 542 717 445 664 371 c 1
 102 371 l 1
EndSplineSet
Validated: 1
EndChar

StartChar: period
Encoding: 46 46 178
Width: 568
VWidth: 1706
Flags: W
HStem: -34 396
VStem: 94 389
LayerCount: 2
Fore
SplineSet
282 362 m 1
 369 305 424 249 483 160 c 1
 432 82 370 15 304 -34 c 1
 219 15 149 83 94 164 c 1
 144 241 213 321 282 362 c 1
EndSplineSet
Validated: 1
EndChar

StartChar: slash
Encoding: 47 47 179
Width: 926
VWidth: 1706
Flags: W
LayerCount: 2
Fore
SplineSet
616 1242 m 1
 662 1249 708 1252 754 1252 c 0
 800 1252 844 1249 887 1242 c 1
 618 726 522 473 307 -60 c 1
 266 -68 224 -72 180 -72 c 0
 134 -72 86 -68 38 -60 c 1
 290 422 428 762 616 1242 c 1
EndSplineSet
Validated: 1
EndChar

StartChar: zero
Encoding: 48 48 180
Width: 1001
VWidth: 1706
Flags: W
HStem: -26 234<470.143 616.911> 960 272<444.453 560.193>
VStem: 111 232<384.075 854.747> 700 218<349.997 793.56>
LayerCount: 2
Fore
SplineSet
385 960 m 5
 358 911 343 817 343 707 c 4
 343 635 349 555 364 473 c 4
 381 375 416 294 475 241 c 4
 502 217 526 208 548 208 c 4
 594 208 625 252 641 284 c 4
 682 363 700 457 700 559 c 4
 700 579 702 601 700 622 c 4
 681 907 514 960 414 960 c 4
 404 960 394 961 385 960 c 5
443 1224 m 5
 474 1229 505 1232 537 1232 c 4
 730 1232 918 1119 918 678 c 4
 918 662 917 646 917 630 c 4
 907 309 763 -26 504 -26 c 4
 501 -26 498 -26 495 -26 c 4
 225 -17 111 205 111 506 c 4
 111 521 111 536 111 551 c 4
 111 559 111 566 111 574 c 4
 132 983 265 1090 443 1224 c 5
EndSplineSet
Validated: 1
EndChar

StartChar: one
Encoding: 49 49 181
Width: 913
VWidth: 1706
Flags: W
HStem: 0 21G<85 744.5>
VStem: 393 212<304 873.635>
LayerCount: 2
Fore
SplineSet
605 1241 m 1
 605 1241 605 704 605 304 c 1
 855 304 l 1
 825 196 777 90 712 0 c 1
 85 0 l 1
 113 102 168 217 225 304 c 1
 393 304 l 1
 393 553 393 576 393 785 c 0
 393 833 375 862 333 883 c 8
 245 927 184 951 97 968 c 1
 228 1094 426 1198 605 1241 c 1
EndSplineSet
Validated: 1
EndChar

StartChar: two
Encoding: 50 50 182
Width: 868
VWidth: 1706
Flags: W
HStem: 0 21G<94 714> 975 258<237.681 454.964>
VStem: 508 279<740.873 922.045>
LayerCount: 2
Fore
SplineSet
239 1196 m 1
 295 1220 364 1233 434 1233 c 0
 545 1233 658 1198 723 1113 c 0
 763 1061 787 993 787 918 c 0
 787 840 761 754 697 670 c 0
 583 522 407 426 351 304 c 1
 810 304 l 1
 793 206 746 87 682 0 c 1
 94 0 l 1
 97 104 105 181 148 286 c 16
 220 462 376 560 459 674 c 0
 494 723 508 769 508 809 c 0
 508 875 471 925 435 944 c 0
 395 965 350 975 302 975 c 0
 243 975 179 961 114 935 c 1
 138 1034 179 1118 239 1196 c 1
EndSplineSet
Validated: 1
EndChar

StartChar: three
Encoding: 51 51 183
Width: 902
VWidth: 1706
Flags: W
HStem: -20 270<330.042 541.611> 966 270<259.586 463.564>
VStem: 493 260<832.398 1010.5> 621 215<285.004 489>
LayerCount: 2
Fore
SplineSet
264 1204 m 1xe0
 296 1225 352 1236 414 1236 c 0
 508 1236 616 1210 680 1152 c 0
 731 1105 753 1043 753 978 c 0xe0
 753 959 751 939 747 919 c 0
 734 852 687 797 629 747 c 1
 708 747 800 672 824 573 c 16
 832 540 836 506 836 472 c 0
 836 367 797 261 718 167 c 0
 617 47 505 -15 343 -20 c 0
 339 -20 335 -20 330 -20 c 0
 245 -20 123 16 68 61 c 1
 114 166 179 259 258 335 c 1
 284 323 380 250 477 250 c 0
 503 250 529 255 553 268 c 0
 597 290 621 329 621 369 c 0xd0
 621 402 606 435 573 461 c 0
 529 496 475 506 390 506 c 0
 353 506 309 504 258 501 c 1
 259 582 274 662 308 728 c 1
 421 738 493 798 493 858 c 0
 493 873 489 888 480 902 c 0
 449 950 393 966 332 966 c 0
 264 966 189 947 128 929 c 1
 162 1041 206 1135 264 1204 c 1xe0
EndSplineSet
Validated: 1
EndChar

StartChar: four
Encoding: 52 52 184
Width: 986
VWidth: 1706
Flags: W
HStem: 238 288<274 534 751 858.037>
VStem: 534 217<144.073 238 526 942>
LayerCount: 2
Fore
SplineSet
534 942 m 1
 403 876 273 708 273 544 c 0
 273 538 274 532 274 526 c 1
 534 526 l 1
 534 942 l 1
772 1232 m 1
 773 1221 773 1210 773 1200 c 0
 773 1122 751 1049 751 1016 c 0
 751 942 751 526 751 526 c 1
 962 526 l 1
 948 428 908 329 850 238 c 1
 745 238 l 1
 745 155 l 1
 700 77 622 5 538 -43 c 1
 534 238 l 1
 117 238 l 1
 107 268 103 313 103 366 c 0
 103 413 106 465 111 520 c 1
 132 694 191 831 249 915 c 0
 373 1095 567 1233 746 1233 c 0
 755 1233 764 1233 772 1232 c 1
EndSplineSet
Validated: 1
EndChar

StartChar: five
Encoding: 53 53 185
Width: 899
VWidth: 1706
Flags: W
HStem: -23 265<255.078 552.849> 274 20G<201.5 258.5> 498 264<339.595 547.783> 928 269<352.82 708.681>
VStem: 152 185<762.959 927.062> 618 193<280.052 496.5>
LayerCount: 2
Fore
SplineSet
340 1277 m 1
 350 1242 361 1221 381 1197 c 1
 841 1197 l 1
 812 1092 760 1000 697 928 c 1
 355 928 l 1
 343 901 337 871 337 841 c 0
 337 813 342 786 351 760 c 1
 373 761 398 762 424 762 c 0
 533 762 668 747 747 650 c 0
 790 598 811 533 811 460 c 0
 811 382 786 296 738 209 c 0
 641 37 511 -21 370 -23 c 0
 367 -23 364 -23 361 -23 c 0
 233 -23 135 17 85 39 c 1
 117 133 166 224 237 294 c 1
 280 277 367 242 442 242 c 0
 444 242 446 242 448 242 c 0
 569 246 618 307 618 356 c 0
 618 406 573 454 492 477 c 0
 431 494 372 498 316 498 c 0
 277 498 240 498 204 498 c 1
 177 617 152 721 152 842 c 0
 152 876 154 911 158 948 c 1
 170 1102 265 1210 340 1277 c 1
EndSplineSet
Validated: 1
EndChar

StartChar: six
Encoding: 54 54 186
Width: 998
VWidth: 1706
Flags: W
HStem: -21 224<429.516 629.219>
VStem: 102 227<310.318 562.791> 685 237<274.272 529.5>
LayerCount: 2
Fore
SplineSet
360 561 m 1
 340 528 329 491 329 451 c 0
 329 400 347 345 388 289 c 0
 429 234 494 203 563 203 c 0
 592 203 622 208 651 220 c 1
 669 255 685 302 685 353 c 0
 685 397 673 443 640 487 c 0
 593 549 506 577 437 577 c 0
 406 577 379 572 360 561 c 1
415 1134 m 1
 527 1188 663 1225 794 1237 c 1
 709 1086 559 902 451 743 c 1
 538 783 634 811 699 811 c 0
 701 811 703 811 705 811 c 0
 777 809 838 754 881 680 c 16
 909 634 922 565 922 494 c 0
 922 444 915 393 903 347 c 0
 857 184 756 73 611 -8 c 1
 564 -17 520 -21 480 -21 c 0
 291 -21 172 69 129 187 c 0
 110 238 102 294 102 350 c 0
 102 461 134 574 174 655 c 0
 217 742 415 1134 415 1134 c 1
EndSplineSet
Validated: 1
EndChar

StartChar: seven
Encoding: 55 55 187
Width: 916
VWidth: 1706
Flags: W
HStem: 908 288<316.879 626>
VStem: 197 314<53.5 321.18>
LayerCount: 2
Fore
SplineSet
302 1295 m 1
 319 1248 316 1196 362 1196 c 10
 892 1196 l 1
 892 985 751 806 636 609 c 0
 562 481 511 333 511 230 c 0
 511 214 512 198 515 184 c 1
 430 87 335 17 215 -33 c 1
 203 -7 197 31 197 76 c 0
 197 150 213 241 242 322 c 0
 300 483 462 667 626 908 c 1
 68 908 l 1
 127 1055 203 1181 302 1295 c 1
EndSplineSet
Validated: 1
EndChar

StartChar: eight
Encoding: 56 56 188
Width: 943
VWidth: 1706
Flags: W
HStem: -26 197<429.899 642.541> 1052 180<374.9 547.601>
VStem: 102 232<261.526 446.261> 135 221<858.354 1023.42> 625 226<812.558 980.451> 672 196<197.63 347.572>
LayerCount: 2
Fore
SplineSet
387 515 m 1xe4
 355 480 334 428 334 377 c 0
 334 351 339 325 352 302 c 0
 392 228 454 184 524 173 c 0
 534 171 543 171 553 171 c 0
 621 171 672 212 672 267 c 0
 672 271 672 275 672 279 c 0
 662 354 503 437 387 515 c 1xe4
553 746 m 1
 607 797 625 839 625 876 c 0
 625 886 624 895 622 904 c 0
 603 992 501 1052 429 1052 c 0
 424 1052 419 1052 414 1052 c 1
 383 1030 356 998 356 955 c 0xd8
 356 941 359 926 365 910 c 0
 383 862 462 797 553 746 c 1
447 1228 m 1
 471 1230 494 1232 517 1232 c 0
 682 1232 820 1169 847 1014 c 0
 850 997 851 981 851 966 c 0xd8
 851 825 742 719 675 664 c 1
 761 612 868 530 868 371 c 0
 868 365 868 360 868 354 c 0
 858 161 715 -20 445 -26 c 0
 443 -26 440 -26 438 -26 c 0
 265 -26 102 80 102 280 c 0
 102 282 102 283 102 284 c 0xe4
 104 448 199 510 273 592 c 1
 194 670 135 722 135 858 c 0
 135 863 135 867 135 872 c 0
 139 1017 242 1157 447 1228 c 1
EndSplineSet
Validated: 1
EndChar

StartChar: nine
Encoding: 57 57 189
Width: 1001
VWidth: 1706
Flags: W
HStem: 1009 223<395.167 599.011>
VStem: 102 238<723.94 937.54> 689 245<638.12 921.76>
LayerCount: 2
Fore
SplineSet
380 997 m 1
 353 959 340 912 340 865 c 0
 340 807 360 749 399 705 c 0
 447 652 521 616 589 616 c 0
 611 616 632 620 651 628 c 1
 676 676 689 729 689 780 c 0
 689 835 674 887 639 929 c 0
 588 990 519 1009 459 1009 c 0
 429 1009 402 1004 380 997 c 1
407 1214 m 1
 456 1225 507 1232 558 1232 c 0
 699 1232 836 1179 907 1022 c 0
 926 980 934 932 934 879 c 0
 934 764 895 633 846 531 c 0
 778 391 726 278 604 71 c 1
 493 13 368 -22 230 -33 c 1
 285 77 450 273 568 454 c 1
 502 434 437 419 347 396 c 1
 187 428 102 586 102 746 c 0
 102 798 111 851 130 900 c 0
 188 1052 279 1138 407 1214 c 1
EndSplineSet
Validated: 1
EndChar

StartChar: colon
Encoding: 58 58 190
Width: 571
VWidth: 1706
Flags: W
VStem: 97 389
LayerCount: 2
Fore
SplineSet
285 966 m 1
 374 901 430 847 486 765 c 1
 436 688 372 622 307 570 c 1
 218 623 148 692 97 768 c 1
 149 846 219 924 285 966 c 1
282 358 m 1
 373 291 429 237 483 157 c 1
 434 82 371 17 304 -38 c 1
 217 13 147 82 94 160 c 1
 148 240 218 319 282 358 c 1
EndSplineSet
Validated: 1
EndChar

StartChar: semicolon
Encoding: 59 59 191
Width: 564
VWidth: 1706
Flags: W
VStem: 186 248<-107.683 205.979>
LayerCount: 2
Fore
SplineSet
147 158 m 1
 206 242 271 307 357 370 c 1
 408 306 434 217 434 120 c 0
 434 -54 352 -253 192 -379 c 1
 191 -379 190 -379 189 -379 c 0
 173 -379 140 -362 127 -354 c 1
 158 -247 186 -150 186 -47 c 0
 186 18 175 85 147 158 c 1
278 964 m 1
 365 907 421 851 480 763 c 1
 429 685 366 617 300 568 c 1
 216 617 145 685 90 766 c 1
 140 844 210 923 278 964 c 1
EndSplineSet
Validated: 1
EndChar

StartChar: less
Encoding: 60 60 192
Width: 855
VWidth: 1706
Flags: W
LayerCount: 2
Fore
SplineSet
51 466 m 17
 58 524 74 580 103 637 c 9
 780 1075 l 17
 780 1069 780 1064 780 1058 c 0
 780 984 767 907 732 826 c 9
 329 568 l 25
 795 290 l 17
 777 212 734 138 679 84 c 9
 51 466 l 17
EndSplineSet
Validated: 1
EndChar

StartChar: equal
Encoding: 61 61 193
Width: 1309
VWidth: 1706
Flags: W
HStem: 273 201<256.776 1052.92> 638 201<256.776 1052.92>
LayerCount: 2
Fore
SplineSet
263 474 m 1
 1116 474 l 1
 1100 398 1076 331 1046 273 c 1
 193 273 l 1
 208 344 229 413 263 474 c 1
263 839 m 1
 1116 839 l 1
 1100 763 1076 695 1046 638 c 1
 193 638 l 1
 208 709 229 777 263 839 c 1
EndSplineSet
Validated: 1
EndChar

StartChar: greater
Encoding: 62 62 194
Width: 855
VWidth: 1706
Flags: W
LayerCount: 2
Fore
SplineSet
830 652 m 17
 822 594 807 538 778 481 c 9
 101 43 l 17
 101 51 101 59 101 67 c 0
 101 137 110 200 143 278 c 9
 560 544 l 25
 85 829 l 17
 104 907 147 980 202 1034 c 9
 830 652 l 17
EndSplineSet
Validated: 1
EndChar

StartChar: question
Encoding: 63 63 195
Width: 837
VWidth: 1706
Flags: W
HStem: 1024 280<245.524 458.742>
VStem: 325 249<601.86 742.083> 492 270<896.245 1083>
LayerCount: 2
Fore
SplineSet
94 1012 m 1xa0
 144 1132 195 1215 285 1304 c 1
 350 1304 421 1302 492 1290 c 0
 680 1258 762 1132 762 1034 c 0xa0
 760 853 593 821 575 710 c 0
 574 706 574 702 574 698 c 0
 574 659 600 619 613 601 c 1
 575 543 522 490 456 444 c 1
 371 487 325 552 325 624 c 0
 325 630 325 635 325 640 c 0xc0
 336 762 492 836 492 920 c 0
 492 929 490 938 486 947 c 0
 462 1005 371 1024 262 1024 c 0
 209 1024 151 1020 94 1012 c 1xa0
437 362 m 1
 524 300 579 244 638 160 c 1
 587 80 525 13 459 -34 c 1
 375 17 304 84 249 164 c 1
 306 251 374 329 437 362 c 1
EndSplineSet
Validated: 1
EndChar

StartChar: at
Encoding: 64 64 196
Width: 1565
VWidth: 1706
Flags: W
HStem: -261 94<605.177 1069.15> 92 109<994 1191.78> 97 120<604.237 800.557> 758 80<765.414 957.077> 1097 84<663.626 1099.18>
VStem: 128 130<187.494 687.405> 454 177<248.443 577.323> 1369 87<408.665 837.785>
LayerCount: 2
Fore
SplineSet
910 754 m 1xbf
 899 756 887 758 877 758 c 0
 742 758 631 608 631 398 c 0
 631 278 674 217 754 217 c 0
 807 217 858 254 910 324 c 1
 971 664 l 1
 971 667 972 670 972 672 c 0
 972 708 943 747 910 754 c 1xbf
905 229 m 1
 819 142 742 97 666 97 c 0xbf
 544 97 454 201 454 370 c 0
 454 480 486 580 548 662 c 0
 630 775 753 838 870 838 c 0
 925 838 978 823 1034 794 c 1
 1063 833 l 1
 1179 833 l 1
 1157 775 1147 715 1133 655 c 1
 1072 365 l 2
 1063 324 1058 290 1058 259 c 0
 1058 227 1082 201 1116 201 c 0
 1161 201 1213 230 1258 288 c 0
 1328 377 1369 503 1369 630 c 0
 1369 910 1183 1097 893 1097 c 0
 722 1097 575 1039 461 930 c 0
 324 800 258 640 258 442 c 0
 258 73 493 -167 843 -167 c 0
 990 -167 1137 -125 1277 -43 c 1
 1307 -111 l 1
 1130 -212 954 -261 799 -261 c 0
 613 -261 445 -195 316 -68 c 0
 191 53 128 217 128 418 c 0
 128 645 210 838 370 986 c 0
 505 1111 689 1181 893 1181 c 0
 1232 1181 1456 961 1456 637 c 0
 1456 510 1425 396 1364 300 c 0
 1280 169 1149 92 1039 92 c 0xdf
 949 92 905 138 905 229 c 1
EndSplineSet
Validated: 1
EndChar

StartChar: A
Encoding: 65 65 197
Width: 1111
VWidth: 1706
Flags: W
HStem: 0 84<-19 79.4406 241 348 681 788 1056.83 1142> 406 96<358 659> 1137 20G<461.722 656.424>
LayerCount: 2
Fore
SplineSet
469 1157 m 1
 649 1157 l 1
 1041 101 l 1
 1142 84 l 1
 1142 0 l 1
 681 0 l 1
 681 84 l 1
 788 94 l 1
 800 116 l 1
 698 406 l 1
 326 406 l 1
 224 118 l 1
 241 96 l 1
 348 84 l 1
 348 0 l 1
 -19 0 l 1
 -19 84 l 1
 84 99 l 1
 469 1157 l 1
507 923 m 1
 358 502 l 1
 659 502 l 1
 507 923 l 1
EndSplineSet
Validated: 1
EndChar

StartChar: B
Encoding: 66 66 198
Width: 1071
VWidth: 1706
Flags: W
HStem: 0 97<49 150 399 687.357> 541 94<399 629.138> 1053 92<49 150 399 638.906>
VStem: 177 222<119 538 635 1029> 705 235<731.856 989.791> 768 239<175.512 465.362>
LayerCount: 2
Fore
SplineSet
49 1145 m 1xf4
 561 1145 l 2
 814 1145 940 1055 940 877 c 0xf8
 940 744 858 652 696 609 c 1
 896 606 1007 502 1007 335 c 0
 1007 119 857 0 577 0 c 2
 49 0 l 1
 49 84 l 1
 150 92 l 1
 177 119 l 1
 177 1029 l 1
 150 1053 l 1
 49 1062 l 1
 49 1145 l 1xf4
399 637 m 1
 415 635 430 635 445 635 c 0
 623 635 705 703 705 857 c 0
 705 990 628 1053 468 1053 c 0
 445 1053 423 1051 399 1050 c 1
 399 637 l 1
399 97 m 1
 428 96 456 94 481 94 c 0
 679 94 768 160 768 324 c 0xf4
 768 469 683 541 512 541 c 0
 485 541 447 541 399 538 c 1
 399 97 l 1
EndSplineSet
Validated: 1
EndChar

StartChar: C
Encoding: 67 67 199
Width: 1088
VWidth: 1706
Flags: W
HStem: -20 107<538.085 844.465> 1055 111<529.842 849.516>
VStem: 70 251<338.04 811.38> 903 123<265.987 335 817 889.875>
LayerCount: 2
Fore
SplineSet
1026 41 m 1
 911 0 792 -20 667 -20 c 0
 544 -20 437 7 353 56 c 0
 176 162 70 353 70 572 c 0
 70 746 131 898 247 1009 c 0
 355 1113 500 1166 678 1166 c 0
 795 1166 911 1143 1026 1103 c 1
 1026 817 l 1
 899 817 l 1
 867 1000 l 1
 843 1029 l 1
 797 1046 753 1055 708 1055 c 0
 474 1055 321 876 321 573 c 0
 321 268 476 87 730 87 c 0
 759 87 794 92 835 102 c 1
 860 128 l 1
 903 335 l 1
 1026 335 l 1
 1026 41 l 1
EndSplineSet
Validated: 1
EndChar

StartChar: D
Encoding: 68 68 200
Width: 1221
VWidth: 1706
Flags: W
HStem: 0 96<49 154 406 710.231> 1050 95<49 154 406 704.391>
VStem: 181 225<119 1026> 908 254<328.358 814.031>
LayerCount: 2
Fore
SplineSet
548 1145 m 2
 944 1145 1162 930 1162 572 c 0
 1162 370 1091 213 952 108 c 0
 847 26 719 0 548 0 c 2
 49 0 l 1
 49 84 l 1
 154 92 l 1
 181 119 l 1
 181 1026 l 1
 154 1053 l 1
 49 1062 l 1
 49 1145 l 1
 548 1145 l 2
406 1050 m 1
 406 96 l 1
 505 96 l 2
 777 96 908 253 908 573 c 0
 908 894 777 1050 505 1050 c 2
 406 1050 l 1
EndSplineSet
Validated: 1
EndChar

StartChar: E
Encoding: 69 69 201
Width: 1017
VWidth: 1706
Flags: W
HStem: 0 97<49 154 403 799> 285 20G<846.778 966> 541 102<403 625> 877 268<790 910> 1050 95<49 154 403 742>
VStem: 181 222<119 541 643 1029> 666 100<394 497.725 686.275 790> 790 120<877 963.016> 850 116<216.018 305>
LayerCount: 2
Fore
SplineSet
49 0 m 1xee80
 49 84 l 1
 154 92 l 1
 181 119 l 1
 181 1029 l 1
 154 1053 l 1
 49 1062 l 1
 49 1145 l 1xee80
 910 1145 l 1
 910 877 l 1
 790 877 l 1xf7
 765 1027 l 1
 742 1050 l 1
 403 1050 l 1
 403 643 l 1
 625 643 l 1
 649 667 l 1
 666 790 l 1
 766 790 l 1
 766 394 l 1
 666 394 l 1
 649 517 l 1
 625 541 l 1
 403 541 l 1
 403 97 l 1
 799 97 l 1
 821 125 l 1
 850 305 l 1
 966 305 l 1
 966 0 l 1
 49 0 l 1xee80
EndSplineSet
Validated: 1
EndChar

StartChar: F
Encoding: 70 70 202
Width: 942
VWidth: 1706
Flags: W
HStem: 0 84<51 154 435 555> 517 104<406 635> 1046 99<406 736> 1062 83<44 154>
VStem: 181 225<119 517 621 1029> 676 101<370 475.412 662.588 768> 783 118<858 953.191>
LayerCount: 2
Fore
SplineSet
51 0 m 1xee
 51 84 l 1
 154 92 l 1
 181 119 l 1
 181 1029 l 1
 154 1053 l 1
 44 1062 l 1
 44 1145 l 1
 901 1145 l 1xde
 901 858 l 1
 783 858 l 1
 758 1024 l 1
 736 1046 l 1
 406 1046 l 1
 406 621 l 1
 635 621 l 1
 659 643 l 1
 676 768 l 1
 777 768 l 1
 777 370 l 1
 676 370 l 1
 659 495 l 1
 635 517 l 1
 406 517 l 1
 406 119 l 1
 435 92 l 1
 555 84 l 1
 555 0 l 1
 51 0 l 1xee
EndSplineSet
Validated: 1
EndChar

StartChar: G
Encoding: 71 71 203
Width: 1211
VWidth: 1706
Flags: W
HStem: -20 114<541.597 829.469> 480 83<679 806 1079 1178> 1056 108<538.231 874.961>
VStem: 68 248<339.12 815.753> 833 218<96.0996 447> 927 124<817 895.631>
LayerCount: 2
Fore
SplineSet
679 563 m 1xf8
 1178 563 l 1
 1178 480 l 1
 1079 471 l 1
 1051 447 l 1xf8
 1051 49 l 1
 920 3 794 -20 669 -20 c 0
 311 -20 68 225 68 580 c 0
 68 930 312 1164 691 1164 c 0
 804 1164 925 1145 1051 1108 c 1
 1051 817 l 1
 927 817 l 1xf4
 894 998 l 1
 869 1029 l 1
 823 1048 777 1056 727 1056 c 0
 473 1056 316 879 316 580 c 0
 316 273 476 94 739 94 c 0
 756 94 788 96 833 99 c 1
 833 447 l 1
 806 471 l 1
 679 480 l 1
 679 563 l 1xf8
EndSplineSet
Validated: 1
EndChar

StartChar: H
Encoding: 72 72 204
Width: 1297
VWidth: 1706
Flags: W
HStem: 0 84<51 150 432 534 770 872 1152 1251> 550 102<404 898> 1062 83<51 150 432 534 770 872 1152 1251>
VStem: 177 227<119 550 652 1026> 898 227<119 550 652 1026>
LayerCount: 2
Fore
SplineSet
51 1145 m 1
 534 1145 l 1
 534 1062 l 1
 432 1053 l 1
 404 1026 l 1
 404 652 l 1
 898 652 l 1
 898 1026 l 1
 872 1053 l 1
 770 1062 l 1
 770 1145 l 1
 1251 1145 l 1
 1251 1062 l 1
 1152 1053 l 1
 1125 1026 l 1
 1125 119 l 1
 1152 92 l 1
 1251 84 l 1
 1251 0 l 1
 770 0 l 1
 770 84 l 1
 872 92 l 1
 898 119 l 1
 898 550 l 1
 404 550 l 1
 404 119 l 1
 432 92 l 1
 534 84 l 1
 534 0 l 1
 51 0 l 1
 51 84 l 1
 150 92 l 1
 177 119 l 1
 177 1026 l 1
 150 1053 l 1
 51 1062 l 1
 51 1145 l 1
EndSplineSet
Validated: 1
EndChar

StartChar: I
Encoding: 73 73 205
Width: 604
VWidth: 1706
Flags: W
HStem: 0 84<51 164 447 561> 1062 83<51 164 447 561>
VStem: 191 229<119 1029>
LayerCount: 2
Fore
SplineSet
51 0 m 1
 51 84 l 1
 164 92 l 1
 191 119 l 1
 191 1029 l 1
 164 1053 l 1
 51 1062 l 1
 51 1145 l 1
 561 1145 l 1
 561 1062 l 1
 447 1053 l 1
 420 1029 l 1
 420 119 l 1
 447 92 l 1
 561 84 l 1
 561 0 l 1
 51 0 l 1
EndSplineSet
Validated: 1
EndChar

StartChar: J
Encoding: 74 74 206
Width: 793
VWidth: 1706
Flags: W
HStem: -20 99<208 359.763> 1062 83<290 410 688 792>
VStem: 20 125<244.925 328> 437 223<177.715 1029>
LayerCount: 2
Fore
SplineSet
437 1029 m 1
 410 1053 l 1
 290 1062 l 1
 290 1145 l 1
 792 1145 l 1
 792 1062 l 1
 688 1053 l 1
 660 1029 l 1
 660 447 l 2
 660 128 543 -20 265 -20 c 0
 184 -20 104 -7 20 20 c 1
 20 328 l 1
 145 328 l 1
 184 102 l 1
 208 80 l 1
 217 80 227 79 236 79 c 0
 391 79 437 196 437 445 c 2
 437 1029 l 1
EndSplineSet
Validated: 1
EndChar

StartChar: K
Encoding: 75 75 207
Width: 1109
VWidth: 1706
Flags: W
HStem: 0 84<51 155 435 536 1024 1147> 502 80<408 456> 1062 83<51 155 435 536 720 816 985 1104>
VStem: 181 227<119 502 582 1029>
LayerCount: 2
Fore
SplineSet
51 0 m 1
 51 84 l 1
 155 92 l 1
 181 119 l 1
 181 1029 l 1
 155 1053 l 1
 51 1062 l 1
 51 1145 l 1
 536 1145 l 1
 536 1062 l 1
 435 1053 l 1
 408 1029 l 1
 408 582 l 1
 456 582 l 1
 826 1031 l 1
 816 1053 l 1
 720 1062 l 1
 720 1145 l 1
 1104 1145 l 1
 1104 1062 l 1
 985 1050 l 1
 660 662 l 1
 1024 94 l 1
 1147 84 l 1
 1147 0 l 1
 794 0 l 1
 794 60 l 1
 507 502 l 1
 408 502 l 1
 408 119 l 1
 435 92 l 1
 536 84 l 1
 536 0 l 1
 51 0 l 1
EndSplineSet
Validated: 1
EndChar

StartChar: L
Encoding: 76 76 208
Width: 926
VWidth: 1706
Flags: W
HStem: 0 99<406 734> 0 84<46 150> 1062 83<46 155 433 538>
VStem: 179 227<119 1029> 782 126<219.761 335>
LayerCount: 2
Fore
SplineSet
46 0 m 1x78
 46 84 l 1x78
 150 92 l 1
 179 119 l 1
 179 1029 l 1
 155 1053 l 1
 46 1062 l 1
 46 1145 l 1
 538 1145 l 1
 538 1062 l 1
 433 1053 l 1
 406 1029 l 1
 406 99 l 1
 734 99 l 1xb8
 756 126 l 1
 782 335 l 1
 908 335 l 1
 908 0 l 1
 46 0 l 1x78
EndSplineSet
Validated: 1
EndChar

StartChar: M
Encoding: 77 77 209
Width: 1506
VWidth: 1706
Flags: W
HStem: 0 84<43 152 324 430 1000 1106 1357 1473> 1063 82<43 155 1357 1473>
VStem: 176 123<126 1027> 1123 215<119 1029>
LayerCount: 2
Fore
SplineSet
43 0 m 1
 43 84 l 1
 152 96 l 1
 176 126 l 1
 176 1031 l 1
 155 1053 l 1
 43 1063 l 1
 43 1145 l 1
 490 1145 l 1
 490 1097 l 1
 756 314 l 1
 1021 1096 l 1
 1021 1145 l 1
 1473 1145 l 1
 1473 1063 l 1
 1357 1053 l 1
 1338 1029 l 1
 1338 119 l 1
 1357 92 l 1
 1473 84 l 1
 1473 0 l 1
 1000 0 l 1
 1000 84 l 1
 1106 92 l 1
 1123 119 l 1
 1123 1036 l 1
 768 0 l 1
 645 0 l 1
 299 1027 l 1
 299 126 l 1
 324 96 l 1
 430 84 l 1
 430 0 l 1
 43 0 l 1
EndSplineSet
Validated: 1
EndChar

StartChar: N
Encoding: 78 78 210
Width: 1240
VWidth: 1706
Flags: W
HStem: 0 82<44 145 328 433> 1062 83<43 152 823 927 1111 1212>
VStem: 176 124<126 916> 957 125<288 1019>
LayerCount: 2
Fore
SplineSet
44 0 m 1
 44 82 l 1
 145 96 l 1
 176 126 l 1
 176 1029 l 1
 152 1053 l 1
 43 1062 l 1
 43 1145 l 1
 435 1145 l 1
 435 1099 l 1
 957 288 l 1
 957 1019 l 1
 927 1051 l 1
 823 1065 l 1
 823 1145 l 1
 1212 1145 l 1
 1212 1065 l 1
 1111 1051 l 1
 1082 1019 l 1
 1082 0 l 1
 891 0 l 1
 300 916 l 1
 300 126 l 1
 328 96 l 1
 433 82 l 1
 433 0 l 1
 44 0 l 1
EndSplineSet
Validated: 1
EndChar

StartChar: O
Encoding: 79 79 211
Width: 1283
VWidth: 1706
Flags: W
HStem: -27 104<502.232 788.852> 1062 109<503.537 793.17>
VStem: 70 254<330.94 826.835> 968 256<326.621 809.207>
LayerCount: 2
Fore
SplineSet
70 579 m 0
 70 765 130 915 246 1022 c 0
 353 1121 486 1171 645 1171 c 0
 792 1171 916 1126 1021 1038 c 0
 1152 925 1224 761 1224 568 c 0
 1224 387 1161 234 1041 123 c 0
 937 26 800 -27 657 -27 c 0
 304 -27 70 215 70 579 c 0
649 1062 m 0
 459 1062 324 881 324 575 c 0
 324 261 463 77 645 77 c 0
 833 77 968 261 968 563 c 0
 968 879 835 1062 649 1062 c 0
EndSplineSet
Validated: 1
EndChar

StartChar: P
Encoding: 80 80 212
Width: 1001
VWidth: 1706
Flags: W
HStem: 0 84<49 150 432 553> 422 99<406 635.266> 1046 99<406 639.028> 1062 83<43 155>
VStem: 181 225<119 427 521.264 1029> 734 235<617.018 958.462>
LayerCount: 2
Fore
SplineSet
49 0 m 1xec
 49 84 l 1
 150 92 l 1
 181 119 l 1
 181 1029 l 1
 155 1053 l 1
 43 1062 l 1
 43 1145 l 1xdc
 503 1145 l 2
 819 1145 969 1046 969 800 c 0
 969 565 809 422 522 422 c 0
 497 422 457 423 406 427 c 1
 406 119 l 1
 432 92 l 1
 553 84 l 1
 553 0 l 1
 49 0 l 1xec
406 524 m 1
 428 522 449 521 468 521 c 0
 645 521 734 613 734 794 c 0
 734 956 650 1046 495 1046 c 2
 406 1046 l 1xec
 406 524 l 1
EndSplineSet
Validated: 1
EndChar

StartChar: Q
Encoding: 81 81 213
Width: 1283
VWidth: 1706
Flags: W
HStem: -304 103<838.346 1158.14> -3 88<508.427 534 775 787.82> 1062 110<501.319 787.26>
VStem: 67 257<329.802 815.271> 534 241<-136.792 -3> 969 260<334.821 811.165>
LayerCount: 2
Fore
SplineSet
775 -3 m 1
 780 -140 853 -201 1005 -201 c 0
 1053 -201 1106 -195 1162 -181 c 1
 1162 -268 l 1
 1053 -292 961 -304 881 -304 c 0
 645 -304 534 -213 534 -15 c 0
 534 -10 l 1
 249 34 67 261 67 573 c 0
 67 707 101 824 166 927 c 0
 263 1077 439 1172 638 1172 c 0
 792 1172 918 1130 1021 1041 c 0
 1154 927 1229 761 1229 567 c 0
 1229 270 1050 44 775 -3 c 1
324 579 m 0
 324 270 466 85 654 85 c 0
 836 85 969 266 969 572 c 0
 969 879 831 1062 642 1062 c 0
 457 1062 324 882 324 579 c 0
EndSplineSet
Validated: 1
EndChar

StartChar: R
Encoding: 82 82 214
Width: 1145
VWidth: 1706
Flags: W
HStem: 0 84<53 154 430 534 1006.59 1181> 503 98<403 595.825> 1048 97<53 154 403 652.842>
VStem: 181 222<119 503 602 1029> 734 239<699.039 966.562>
LayerCount: 2
Fore
SplineSet
53 1145 m 1
 572 1145 l 2
 836 1145 973 1043 973 853 c 0
 973 696 872 597 679 561 c 1
 761 543 819 510 858 456 c 0
 911 381 925 288 957 203 c 0
 993 109 1044 84 1159 84 c 0
 1166 84 1172 84 1181 84 c 1
 1181 0 l 1
 1121 -9 1063 -12 1010 -12 c 0
 937 -12 874 9 833 41 c 0
 744 109 729 186 701 268 c 0
 649 430 604 503 432 503 c 0
 423 503 413 503 403 503 c 1
 403 119 l 1
 430 92 l 1
 534 84 l 1
 534 0 l 1
 53 0 l 1
 53 84 l 1
 154 92 l 1
 181 119 l 1
 181 1029 l 1
 154 1053 l 1
 53 1062 l 1
 53 1145 l 1
403 1048 m 1
 403 602 l 1
 425 601 445 601 464 601 c 0
 647 601 734 672 734 829 c 0
 734 969 647 1048 481 1048 c 2
 403 1048 l 1
EndSplineSet
Validated: 1
EndChar

StartChar: S
Encoding: 83 83 215
Width: 969
VWidth: 1706
Flags: W
HStem: -19 111<273.313 587.44> 849 259<726 848> 1056 110<406.268 681.37>
VStem: 101 129<241.552 346> 124 222<783.826 974.225> 650 232<167.688 369.141> 726 122<849 925.459>
LayerCount: 2
Fore
SplineSet
101 38 m 1xb4
 101 346 l 1
 230 346 l 1xb4
 258 142 l 1
 280 116 l 1
 328 101 377 92 430 92 c 0
 568 92 650 160 650 254 c 0
 650 346 589 408 468 469 c 0
 399 503 319 532 244 596 c 0
 166 662 124 725 124 808 c 0
 124 998 283 1166 527 1166 c 0xac
 633 1166 741 1145 848 1108 c 1
 848 849 l 1
 807 849 767 849 726 849 c 1xca
 696 1009 l 1
 672 1033 l 1
 642 1048 602 1056 548 1056 c 0
 423 1056 346 988 346 894 c 0xaa
 346 816 394 765 485 710 c 0
 538 678 628 652 729 587 c 0
 828 524 882 432 882 331 c 0
 882 128 710 -19 430 -19 c 0
 321 -19 207 0 101 38 c 1xb4
EndSplineSet
Validated: 1
EndChar

StartChar: T
Encoding: 84 84 216
Width: 1029
VWidth: 1706
Flags: W
HStem: 0 84<265 375 664 775> 843 302<27 145 894 1012> 1048 97<200 404 635 840>
VStem: 27 118<843 940.166> 404 231<119 1048> 894 118<843 933.465>
CounterMasks: 1 1c
LayerCount: 2
Fore
SplineSet
27 1145 m 1xdc
 1012 1145 l 1
 1012 843 l 1
 894 843 l 1xdc
 865 1026 l 1
 840 1048 l 1
 635 1048 l 1
 635 119 l 1
 664 92 l 1
 775 84 l 1
 775 0 l 1
 265 0 l 1
 265 84 l 1
 375 92 l 1
 404 119 l 1
 404 1048 l 1
 200 1048 l 1xbc
 172 1026 l 1
 145 843 l 1
 27 843 l 1
 27 1145 l 1xdc
EndSplineSet
Validated: 1
EndChar

StartChar: U
Encoding: 85 85 217
Width: 1203
VWidth: 1706
Flags: W
HStem: -20 134<494.408 832.677> 1062 83<34 142 418 524 797 906 1080 1184>
VStem: 166 228<216.901 1029> 932 124<217.531 1022>
LayerCount: 2
Fore
SplineSet
34 1145 m 1
 524 1145 l 1
 524 1062 l 1
 418 1053 l 1
 394 1029 l 1
 394 432 l 2
 394 212 468 114 672 114 c 0
 862 114 932 220 932 447 c 2
 932 1022 l 1
 906 1051 l 1
 797 1062 l 1
 797 1145 l 1
 1184 1145 l 1
 1184 1062 l 1
 1080 1051 l 1
 1056 1022 l 1
 1056 430 l 2
 1056 118 927 -20 606 -20 c 0
 437 -20 311 31 241 119 c 0
 174 207 166 307 166 439 c 2
 166 1029 l 1
 142 1053 l 1
 34 1062 l 1
 34 1145 l 1
EndSplineSet
Validated: 1
EndChar

StartChar: V
Encoding: 86 86 218
Width: 1083
VWidth: 1706
Flags: W
HStem: -3 21G<456.586 644.255> 1062 83<-36 41.1413 335 433 753 855 1056.81 1126>
LayerCount: 2
Fore
SplineSet
-36 1145 m 1
 433 1145 l 1
 433 1062 l 1
 335 1053 l 1
 316 1027 l 1
 599 249 l 1
 874 1027 l 1
 855 1053 l 1
 753 1062 l 1
 753 1145 l 1
 1126 1145 l 1
 1126 1062 l 1
 1015 1039 l 1
 637 -3 l 1
 464 -3 l 1
 77 1041 l 1
 -36 1062 l 1
 -36 1145 l 1
EndSplineSet
Validated: 1
EndChar

StartChar: W
Encoding: 87 87 219
Width: 1614
VWidth: 1706
Flags: W
HStem: 0 21G<381.682 558.927 1070.94 1247.05> 1062 83<3 67.512 345 451 1239 1316.14 1547.09 1611>
LayerCount: 2
Fore
SplineSet
387 0 m 1
 111 1038 l 1
 3 1062 l 1
 3 1145 l 1
 451 1145 l 1
 451 1062 l 1
 345 1051 l 1
 331 1027 l 1
 522 319 l 1
 768 1145 l 1
 940 1145 l 1
 1193 300 l 1
 1372 1017 l 1
 1352 1041 l 1
 1239 1062 l 1
 1239 1145 l 1
 1611 1145 l 1
 1611 1062 l 1
 1504 1038 l 1
 1242 0 l 1
 1077 0 l 1
 812 874 l 1
 553 0 l 1
 387 0 l 1
EndSplineSet
Validated: 1
EndChar

StartChar: X
Encoding: 88 88 220
Width: 1087
VWidth: 1706
Flags: W
HStem: 0 82<0 91.9191 283 394 604 712 1024.71 1099> 1063 82<24 114.232 404 507 698 792 975 1080>
LayerCount: 2
Fore
SplineSet
24 1145 m 1
 507 1145 l 1
 507 1063 l 1
 404 1055 l 1
 391 1033 l 1
 585 715 l 1
 807 1027 l 1
 792 1051 l 1
 698 1063 l 1
 698 1145 l 1
 1080 1145 l 1
 1080 1063 l 1
 975 1050 l 1
 657 620 l 1
 985 104 l 1
 1099 82 l 1
 1099 0 l 1
 604 0 l 1
 604 82 l 1
 712 96 l 1
 724 118 l 1
 515 459 l 1
 273 121 l 1
 283 92 l 1
 394 82 l 1
 394 0 l 1
 0 0 l 1
 0 82 l 1
 109 99 l 1
 442 555 l 1
 131 1046 l 1
 24 1063 l 1
 24 1145 l 1
EndSplineSet
Validated: 1
EndChar

StartChar: Y
Encoding: 89 89 221
Width: 1041
VWidth: 1706
Flags: W
HStem: 0 85<276 391 672 788> 1062 83<-19 67.8124 352 447 698 779.237 993.793 1070>
VStem: 418 227<118 451>
LayerCount: 2
Fore
SplineSet
-19 1145 m 1
 447 1145 l 1
 447 1062 l 1
 352 1053 l 1
 336 1033 l 1
 570 599 l 1
 814 1017 l 1
 800 1044 l 1
 698 1062 l 1
 698 1145 l 1
 1070 1145 l 1
 1070 1062 l 1
 969 1043 l 1
 645 492 l 1
 645 118 l 1
 672 94 l 1
 788 85 l 1
 788 0 l 1
 276 0 l 1
 276 85 l 1
 391 94 l 1
 418 118 l 1
 418 451 l 1
 90 1044 l 1
 -19 1062 l 1
 -19 1145 l 1
EndSplineSet
Validated: 1
EndChar

StartChar: Z
Encoding: 90 90 222
Width: 1010
VWidth: 1706
Flags: W
HStem: 0 101<331 768> 843 21G<106 229.951> 1046 99<287 672>
VStem: 106 121<843 940.166> 816 123<235.735 331>
LayerCount: 2
Fore
SplineSet
106 1145 m 1
 928 1145 l 1
 928 1051 l 1
 331 101 l 1
 768 101 l 1
 785 125 l 1
 816 331 l 1
 939 331 l 1
 939 0 l 1
 75 0 l 1
 75 94 l 1
 672 1046 l 1
 287 1046 l 1
 254 1026 l 1
 227 843 l 1
 106 843 l 1
 106 1145 l 1
EndSplineSet
Validated: 1
EndChar

StartChar: bracketleft
Encoding: 91 91 223
Width: 851
VWidth: 1706
Flags: W
HStem: -290 247<415 634.919> 1122 248<415 671.81>
VStem: 220 195<-43 1117.96>
LayerCount: 2
Fore
SplineSet
415 1122 m 1
 415 -43 l 1
 752 -43 l 1
 730 -137 683 -215 624 -290 c 1
 220 -290 l 1
 220 1103 l 1
 259 1211 295 1283 362 1370 c 1
 794 1370 l 1
 772 1278 724 1194 660 1122 c 1
 415 1122 l 1
EndSplineSet
Validated: 1
EndChar

StartChar: backslash
Encoding: 92 92 224
Width: 926
VWidth: 1706
Flags: W
LayerCount: 2
Fore
SplineSet
309 1242 m 1
 497 762 635 422 887 -60 c 1
 839 -68 791 -72 745 -72 c 0
 701 -72 659 -68 618 -60 c 1
 403 473 307 726 38 1242 c 1
 80 1249 126 1252 171 1252 c 0
 217 1252 264 1249 309 1242 c 1
EndSplineSet
Validated: 1
EndChar

StartChar: bracketright
Encoding: 93 93 225
Width: 851
VWidth: 1706
Flags: W
HStem: -290 247<180.19 437> 1122 248<217.081 437>
VStem: 437 195<-38.0895 1122>
LayerCount: 2
Fore
SplineSet
437 -43 m 1
 437 1122 l 1
 100 1122 l 1
 122 1217 169 1294 228 1370 c 1
 632 1370 l 1
 632 -23 l 1
 593 -132 557 -204 490 -290 c 1
 58 -290 l 1
 80 -198 128 -115 192 -43 c 1
 437 -43 l 1
EndSplineSet
Validated: 1
EndChar

StartChar: asciicircum
Encoding: 94 94 226
Width: 1706
VWidth: 1706
Flags: W
HStem: 748 471
LayerCount: 2
Fore
SplineSet
942 1219 m 1
 1360 748 l 1
 1273 748 l 1
 852 1079 l 1
 430 748 l 1
 343 748 l 1
 763 1219 l 1
 942 1219 l 1
EndSplineSet
Validated: 1
EndChar

StartChar: underscore
Encoding: 95 95 227
Width: 853
VWidth: 1706
Flags: W
HStem: -403 144<0 853>
LayerCount: 2
Fore
SplineSet
853 -259 m 1
 853 -403 l 1
 0 -403 l 1
 0 -259 l 1
 853 -259 l 1
EndSplineSet
Validated: 1
EndChar

StartChar: grave
Encoding: 96 96 228
Width: 853
VWidth: 1706
Flags: W
HStem: 942 324
VStem: 147 377
LayerCount: 2
Fore
SplineSet
147 1266 m 1
 358 1266 l 1
 524 942 l 1
 408 942 l 1
 147 1266 l 1
EndSplineSet
Validated: 1
EndChar

StartChar: a
Encoding: 97 97 229
Width: 928
VWidth: 1706
Flags: W
HStem: -15 131<226 468.962> 0 75<821 911> 445 87<431.944 585> 761 91<344.156 545.233>
VStem: 68 226<142.328 348.151> 108 235<594.375 747.067> 585 214<145.895 445 524.585 723.078>
LayerCount: 2
Fore
SplineSet
585 97 m 1x76
 476 24 384 -15 292 -15 c 0
 160 -15 68 77 68 207 c 0xba
 68 403 228 452 585 532 c 1
 585 584 l 2
 585 707 538 761 425 761 c 0
 399 761 374 758 343 751 c 1
 343 591 l 1
 186 591 l 2
 135 591 108 608 108 654 c 0
 108 751 254 852 480 852 c 0
 719 852 799 768 799 550 c 2
 799 108 l 1
 821 84 l 1
 911 75 l 1
 911 0 l 1
 608 0 l 1
 585 97 l 1x76
585 167 m 1
 585 445 l 1
 384 401 294 357 294 244 c 0
 294 166 341 116 420 116 c 0
 464 116 519 133 585 167 c 1
EndSplineSet
Validated: 1
EndChar

StartChar: b
Encoding: 98 98 230
Width: 984
VWidth: 1706
Flags: W
HStem: 0 92<350 590.205> 717 133<415.561 605.282> 1114 67<15 60.3376>
VStem: 139 211<90.0132 711.385 773 1114> 705 229<252.789 610.668>
LayerCount: 2
Fore
SplineSet
268 1261 m 1
 350 1261 l 1
 350 773 l 1
 442 824 522 850 597 850 c 0
 792 850 934 693 934 463 c 0
 934 265 840 118 664 39 c 0
 601 12 504 0 374 0 c 0
 330 0 l 2
 139 0 l 1
 139 1114 l 1
 15 1114 l 1
 15 1181 l 1
 268 1261 l 1
350 92 m 1
 369 90 387 90 404 90 c 0
 611 90 705 195 705 418 c 0
 705 613 614 717 457 717 c 0
 427 717 391 712 350 703 c 1
 350 92 l 1
EndSplineSet
Validated: 1
EndChar

StartChar: c
Encoding: 99 99 231
Width: 812
VWidth: 1706
Flags: W
HStem: -14 135<412.611 691.374> 765 83<406.721 556.198>
VStem: 60 232<251.494 605.857> 558 224<570.144 762.816>
LayerCount: 2
Fore
SplineSet
792 77 m 1
 683 17 579 -14 469 -14 c 0
 222 -14 60 159 60 406 c 0
 60 666 244 848 500 848 c 0
 676 848 782 766 782 662 c 0
 782 596 732 546 659 546 c 0
 621 546 589 556 558 579 c 1
 558 759 l 1
 541 763 527 765 515 765 c 0
 396 765 292 642 292 447 c 0
 292 242 396 121 555 121 c 0
 628 121 708 147 792 198 c 1
 792 77 l 1
EndSplineSet
Validated: 1
EndChar

StartChar: d
Encoding: 100 100 232
Width: 1017
VWidth: 1706
Flags: W
HStem: -15 145<296.851 558.798> 0 75<896 983> 758 95<408.057 661.382> 1113 68<539 584.696>
VStem: 63 229<236.385 607.61> 664 208<147.112 745.563 836 1113>
LayerCount: 2
Fore
SplineSet
664 1113 m 1xbc
 539 1113 l 1
 539 1181 l 1
 794 1261 l 1
 872 1261 l 1
 872 109 l 1
 896 82 l 1
 983 75 l 1
 983 0 l 1
 664 0 l 1x7c
 664 96 l 1
 567 24 481 -15 394 -15 c 0
 203 -15 63 150 63 396 c 0
 63 671 244 853 503 853 c 0
 550 853 602 848 664 836 c 1
 664 1113 l 1xbc
664 162 m 1
 664 732 l 1
 614 749 573 758 538 758 c 0
 393 758 292 635 292 432 c 0
 292 241 379 130 521 130 c 0xbc
 561 130 609 142 664 162 c 1
EndSplineSet
Validated: 1
EndChar

StartChar: e
Encoding: 101 101 233
Width: 894
VWidth: 1706
Flags: W
HStem: -15 133<402.543 719.501> 435 91<290 616> 759 94<361.281 566.856>
VStem: 63 219<247.151 435 526 619.397> 616 224<526 674.021>
LayerCount: 2
Fore
SplineSet
838 212 m 1
 838 85 l 1
 724 19 604 -15 485 -15 c 0
 230 -15 63 155 63 413 c 0
 63 674 239 853 485 853 c 0
 708 853 840 713 840 468 c 0
 840 457 840 445 840 435 c 1
 282 435 l 1
 282 430 l 0
 282 234 387 118 556 118 c 0
 647 118 739 148 838 212 c 1
616 526 m 1
 616 532 616 538 616 544 c 0
 616 686 561 759 468 759 c 0
 365 759 295 674 290 526 c 1
 616 526 l 1
EndSplineSet
Validated: 1
EndChar

StartChar: f
Encoding: 102 102 234
Width: 581
VWidth: 1706
Flags: W
HStem: 0 79<53 138 399 514> 707 102<372 601>
VStem: 162 210<114 707 823 1038>
LayerCount: 2
Fore
SplineSet
53 0 m 1
 53 79 l 1
 138 87 l 1
 162 114 l 1
 162 707 l 1
 51 707 l 1
 51 771 l 1
 162 823 l 1
 162 986 218 1109 336 1196 c 0
 399 1244 473 1268 543 1268 c 0
 642 1268 703 1219 703 1145 c 0
 703 1099 669 1060 604 1038 c 1
 439 1184 l 1
 394 1138 372 1051 372 925 c 0
 372 922 372 916 372 911 c 2
 372 809 l 1
 601 809 l 1
 601 707 l 1
 372 707 l 1
 372 113 l 1
 399 87 l 1
 514 79 l 1
 514 0 l 1
 53 0 l 1
EndSplineSet
Validated: 1
EndChar

StartChar: g
Encoding: 103 103 235
Width: 940
VWidth: 1706
Flags: W
HStem: -370 90<331.883 603.499> 287 77<380.234 536.555> 701 98<763 947> 768 80<366.505 541.019>
VStem: 58 208<-216.24 -10.6846> 94 218<412.112 707.798> 212 163<125 248.22> 591 209<424.18 699.093> 667 203<-197.568 -34.6267>
LayerCount: 2
Fore
SplineSet
695 799 m 1xe4
 947 799 l 1
 947 701 l 1
 763 701 l 1
 788 657 800 614 800 570 c 0
 800 406 664 287 439 287 c 0
 423 287 406 286 389 287 c 1
 381 265 375 246 375 225 c 0xe3
 375 212 377 196 381 179 c 1
 497 164 l 2
 744 128 870 77 870 -68 c 0
 870 -229 686 -370 411 -370 c 0
 186 -370 58 -276 58 -137 c 0xe880
 58 -31 125 41 234 51 c 1
 218 84 212 113 212 137 c 0xe2
 212 193 242 242 305 299 c 1
 167 338 94 432 94 555 c 0
 94 729 232 848 459 848 c 0xd4
 532 848 611 833 695 799 c 1xe4
456 768 m 0xd5
 370 768 312 695 312 570 c 0
 312 440 370 364 452 364 c 0
 532 364 591 442 591 572 c 0
 591 695 531 768 456 768 c 0xd5
338 32 m 1
 290 -7 266 -55 266 -109 c 0
 266 -201 350 -280 464 -280 c 0
 587 -280 667 -207 667 -119 c 0xc880
 667 -36 604 -12 483 9 c 2
 338 32 l 1
EndSplineSet
Validated: 1
EndChar

StartChar: h
Encoding: 104 104 236
Width: 1018
VWidth: 1706
Flags: W
HStem: 0 77<41 128 387 463 582 655 910 1000> 701 149<483.415 732.5> 1114 67<27 72.3376>
VStem: 152 210<109 683.863 746 1114> 679 208<109 663.3>
LayerCount: 2
Fore
SplineSet
280 1261 m 1
 362 1261 l 1
 362 746 l 1
 485 812 577 850 654 850 c 0
 811 850 887 756 887 567 c 2
 887 109 l 1
 910 84 l 1
 1000 77 l 1
 1000 0 l 1
 582 0 l 1
 582 77 l 1
 655 84 l 1
 679 109 l 1
 679 517 l 2
 679 643 631 701 526 701 c 0
 481 701 427 691 362 672 c 1
 362 109 l 1
 387 84 l 1
 463 77 l 1
 463 0 l 1
 41 0 l 1
 41 77 l 1
 128 84 l 1
 152 109 l 1
 152 1114 l 1
 27 1114 l 1
 27 1181 l 1
 280 1261 l 1
EndSplineSet
Validated: 1
EndChar

StartChar: i
Encoding: 105 105 237
Width: 520
VWidth: 1706
Flags: W
HStem: 0 77<51 143 403 498> 827 20G<235.741 377> 981 255<183.204 374.087>
VStem: 154 250<1010.33 1207.52> 167 210<109 698>
LayerCount: 2
Fore
SplineSet
276 1236 m 0xf0
 353 1236 404 1181 404 1111 c 0
 404 1034 350 981 278 981 c 0
 210 981 154 1033 154 1108 c 0
 154 1181 207 1236 276 1236 c 0xf0
295 847 m 1
 377 847 l 1
 377 109 l 1
 403 84 l 1
 498 77 l 1
 498 0 l 1
 51 0 l 1
 51 77 l 1
 143 84 l 1
 167 109 l 1
 167 698 l 1xe8
 55 698 l 1
 55 766 l 1
 295 847 l 1
EndSplineSet
Validated: 1
EndChar

StartChar: j
Encoding: 106 106 238
Width: 506
VWidth: 1706
Flags: W
HStem: 698 67<65 110.106> 827 20G<260.073 394> 981 255<189.425 381.554>
VStem: 160 253<1012.29 1205.38> 186 208<-143.901 698>
LayerCount: 2
Fore
SplineSet
186 698 m 1xe8
 65 698 l 1
 65 765 l 1
 323 847 l 1
 394 847 l 1
 394 167 l 2
 394 -3 379 -130 302 -229 c 0
 236 -314 128 -365 19 -365 c 0
 -77 -365 -137 -314 -137 -246 c 0
 -137 -191 -99 -145 -38 -133 c 1
 130 -288 l 1
 172 -230 186 -118 186 49 c 2
 186 698 l 1xe8
160 1108 m 0xf0
 160 1183 212 1236 288 1236 c 0
 358 1236 413 1181 413 1106 c 0
 413 1036 355 981 285 981 c 0
 217 981 160 1033 160 1108 c 0xf0
EndSplineSet
Validated: 1
EndChar

StartChar: k
Encoding: 107 107 239
Width: 943
VWidth: 1706
Flags: W
HStem: 0 75<43 131 387 473 874 975> 386 56<365 403> 754 75<560 635 797 908> 1114 67<31 78.1296>
VStem: 155 210<109 386 442 1114>
LayerCount: 2
Fore
SplineSet
43 0 m 1
 43 75 l 1
 131 84 l 1
 155 109 l 1
 155 1114 l 1
 31 1114 l 1
 31 1181 l 1
 294 1261 l 1
 365 1261 l 1
 365 442 l 1
 403 442 l 1
 647 727 l 1
 635 746 l 1
 560 754 l 1
 560 829 l 1
 908 829 l 1
 908 754 l 1
 797 741 l 1
 602 524 l 1
 874 84 l 1
 975 75 l 1
 975 0 l 1
 647 0 l 1
 647 67 l 1
 449 386 l 1
 365 386 l 1
 365 106 l 1
 387 82 l 1
 473 75 l 1
 473 0 l 1
 43 0 l 1
EndSplineSet
Validated: 1
EndChar

StartChar: l
Encoding: 108 108 240
Width: 518
VWidth: 1706
Flags: W
HStem: 0 75<39 138 398 497> 1113 66<39 84.1059>
VStem: 162 210<113 1113>
LayerCount: 2
Fore
SplineSet
39 0 m 1
 39 75 l 1
 138 85 l 1
 162 109 l 1
 162 1113 l 1
 39 1113 l 1
 39 1179 l 1
 297 1261 l 1
 372 1261 l 1
 372 113 l 1
 398 85 l 1
 497 75 l 1
 497 0 l 1
 39 0 l 1
EndSplineSet
Validated: 1
EndChar

StartChar: m
Encoding: 109 109 241
Width: 1522
VWidth: 1706
Flags: W
HStem: 0 77<53 140 399 471 579 649 905 981 1087 1161 1417 1507> 703 150<494.192 688.688 1003.55 1231.94>
VStem: 164 211<109 687.131> 672 209<113 667.762> 1184 210<109 663.3>
LayerCount: 2
Fore
SplineSet
855 734 m 1
 992 812 1094 850 1157 850 c 0
 1316 850 1394 756 1394 567 c 2
 1394 109 l 1
 1417 84 l 1
 1507 77 l 1
 1507 0 l 1
 1087 0 l 1
 1087 77 l 1
 1161 84 l 1
 1184 109 l 1
 1184 517 l 2
 1184 645 1140 703 1027 703 c 0
 985 703 937 689 881 669 c 1
 881 109 l 1
 905 84 l 1
 981 75 l 1
 981 0 l 1
 579 0 l 1
 579 77 l 1
 649 84 l 1
 672 113 l 1
 672 527 l 2
 672 647 628 703 519 703 c 0
 478 703 430 693 375 672 c 1
 375 109 l 1
 399 84 l 1
 471 77 l 1
 471 0 l 1
 53 0 l 1
 53 77 l 1
 140 84 l 1
 164 109 l 1
 164 698 l 1
 53 698 l 1
 53 766 l 1
 294 847 l 1
 375 847 l 1
 375 746 l 1
 492 814 580 853 655 853 c 0
 741 853 809 812 855 734 c 1
EndSplineSet
Validated: 1
EndChar

StartChar: n
Encoding: 110 110 242
Width: 1032
VWidth: 1706
Flags: W
HStem: 0 77<53 140 399 474 594 667 922 1012> 701 149<496.489 739.312>
VStem: 164 211<109 683.863> 691 208<109 663.3>
LayerCount: 2
Fore
SplineSet
53 0 m 1
 53 77 l 1
 140 84 l 1
 164 109 l 1
 164 698 l 1
 48 698 l 1
 48 766 l 1
 294 847 l 1
 375 847 l 1
 375 746 l 1
 497 812 592 850 667 850 c 0
 824 850 899 756 899 567 c 2
 899 109 l 1
 922 84 l 1
 1012 77 l 1
 1012 0 l 1
 594 0 l 1
 594 77 l 1
 667 84 l 1
 691 109 l 1
 691 517 l 2
 691 643 645 701 538 701 c 0
 495 701 440 691 375 672 c 1
 375 109 l 1
 399 84 l 1
 474 77 l 1
 474 0 l 1
 53 0 l 1
EndSplineSet
Validated: 1
EndChar

StartChar: o
Encoding: 111 111 243
Width: 984
VWidth: 1706
Flags: W
HStem: -14 91<389.524 611.369> 761 91<388.361 608.109>
VStem: 63 237<209.071 621.349> 698 236<210.765 623.944>
LayerCount: 2
Fore
SplineSet
505 852 m 0
 766 852 934 683 934 411 c 0
 934 159 761 -14 492 -14 c 0
 236 -14 63 157 63 415 c 0
 63 678 237 852 505 852 c 0
498 761 m 0
 377 761 300 642 300 422 c 0
 300 198 377 77 497 77 c 0
 623 77 698 195 698 416 c 0
 698 640 620 761 498 761 c 0
EndSplineSet
Validated: 1
EndChar

StartChar: p
Encoding: 112 112 244
Width: 1008
VWidth: 1706
Flags: W
HStem: -374 79<39 131 389 495> 0 90<364 604.987> 698 149<458.114 640.384> 698 68<38 82.0699>
VStem: 155 209<-261 9 94.4561 688.245> 724 232<232.821 604.951>
LayerCount: 2
Fore
SplineSet
39 -374 m 1xec
 39 -295 l 1
 131 -287 l 1
 155 -261 l 1
 155 698 l 1
 38 698 l 1
 38 766 l 1xdc
 287 847 l 1
 364 847 l 1
 364 744 l 1
 464 814 550 852 633 852 c 0
 814 852 956 688 956 449 c 0
 956 176 792 0 515 0 c 0
 478 0 420 2 364 9 c 1
 364 -265 l 1
 389 -288 l 1
 497 -295 l 1
 495 -374 l 1
 39 -374 l 1xec
364 102 m 1
 403 94 439 90 473 90 c 0
 623 90 724 215 724 420 c 0
 724 602 637 705 498 705 c 0
 459 705 415 693 364 672 c 1
 364 102 l 1
EndSplineSet
Validated: 1
EndChar

StartChar: q
Encoding: 113 113 245
Width: 981
VWidth: 1706
Flags: W
HStem: -374 80<519 628 889 975> -7 135<300.012 581.746> 758 94<409.693 651.38>
VStem: 63 231<237.054 605.297> 654 210<-263 73 132.973 755.271>
LayerCount: 2
Fore
SplineSet
869 829 m 1
 865 771 864 739 864 730 c 2
 864 -265 l 1
 889 -288 l 1
 975 -295 l 1
 975 -374 l 1
 519 -374 l 1
 519 -294 l 1
 628 -287 l 1
 654 -263 l 1
 654 73 l 1
 558 20 474 -7 399 -7 c 0
 207 -7 63 154 63 391 c 0
 63 679 256 852 602 852 c 0
 679 852 766 843 869 829 c 1
654 749 m 1
 623 754 596 758 568 758 c 0
 391 758 294 640 294 427 c 0
 294 234 386 128 534 128 c 0
 567 128 608 131 654 140 c 1
 654 749 l 1
EndSplineSet
Validated: 1
EndChar

StartChar: r
Encoding: 114 114 246
Width: 718
VWidth: 1706
Flags: W
HStem: 0 77<49 140 399 521> 647 203<481.5 623> 698 68<41 85.4239>
VStem: 164 210<109 623.27 672 698>
LayerCount: 2
Fore
SplineSet
49 0 m 1xd0
 49 77 l 1
 140 84 l 1
 164 109 l 1
 164 698 l 1
 41 698 l 1
 41 766 l 1xb0
 292 847 l 1
 374 847 l 1
 367 672 l 1
 428 739 497 797 567 847 c 1
 579 848 592 850 604 850 c 0
 642 850 679 840 717 821 c 1
 695 585 l 1
 606 585 l 1
 580 628 544 647 495 647 c 0
 468 647 427 631 374 599 c 1
 374 109 l 1
 399 84 l 1
 521 77 l 1
 521 0 l 1
 49 0 l 1xd0
EndSplineSet
Validated: 1
EndChar

StartChar: s
Encoding: 115 115 247
Width: 762
VWidth: 1706
Flags: W
HStem: -19 94<207.15 468.281> 584 227<572 674> 758 95<312.669 542.489>
VStem: 70 104<165.839 276> 82 210<570.709 735.235> 498 202<108.742 280.586> 572 102<584 691.942>
LayerCount: 2
Fore
SplineSet
674 811 m 1xca
 674 584 l 1
 572 584 l 1xca
 555 712 l 1
 534 730 l 1
 498 748 461 758 422 758 c 0
 338 758 292 719 292 655 c 0xaa
 292 584 350 555 451 505 c 0
 602 432 700 386 700 263 c 0
 700 90 572 -19 352 -19 c 0
 270 -19 176 -5 70 24 c 1
 70 276 l 1
 174 276 l 1xb4
 193 130 l 1
 210 111 l 1
 254 87 302 75 353 75 c 0
 445 75 498 123 498 198 c 0
 498 290 406 307 273 374 c 0
 147 437 82 497 82 599 c 0
 82 746 207 853 416 853 c 0xac
 502 853 587 840 674 811 c 1xca
EndSplineSet
Validated: 1
EndChar

StartChar: t
Encoding: 116 116 248
Width: 610
VWidth: 1706
Flags: W
HStem: -9 125<318 576.524> 707 102<355 608> 1001 20G<237.112 355>
VStem: 143 212<140.558 707>
LayerCount: 2
Fore
SplineSet
143 707 m 1
 32 707 l 1
 32 771 l 1
 159 843 l 1
 247 1021 l 1
 355 1021 l 1
 355 809 l 1
 608 809 l 1
 608 707 l 1
 355 707 l 1
 355 282 l 2
 355 160 384 116 497 116 c 0
 538 116 573 119 608 128 c 1
 608 46 l 1
 505 9 416 -9 346 -9 c 0
 290 -9 244 2 205 29 c 0
 145 68 143 123 143 210 c 2
 143 707 l 1
EndSplineSet
Validated: 1
EndChar

StartChar: u
Encoding: 117 117 249
Width: 1024
VWidth: 1706
Flags: W
HStem: -15 146<304.5 556.777> 0 77<905 993> 832 20G<221.22 362 742.976 881>
VStem: 150 212<169.014 703> 671 210<146.817 703>
LayerCount: 2
Fore
SplineSet
280 852 m 1xb8
 362 852 l 1
 362 323 l 2
 362 189 406 131 524 131 c 0xb8
 567 131 614 142 671 159 c 1
 671 703 l 1
 560 703 l 1
 560 770 l 1
 802 852 l 1
 881 852 l 1
 881 109 l 1
 905 84 l 1
 993 77 l 1
 993 0 l 1
 671 0 l 1x78
 671 94 l 1
 563 24 474 -15 384 -15 c 0
 225 -15 150 80 150 276 c 2
 150 703 l 1
 39 703 l 1
 39 770 l 1
 280 852 l 1xb8
EndSplineSet
Validated: 1
EndChar

StartChar: v
Encoding: 118 118 250
Width: 875
VWidth: 1706
Flags: W
HStem: 0 21G<357.642 526.908> 753 76<-10 92 335 423 587 674 812 911>
LayerCount: 2
Fore
SplineSet
-10 829 m 1
 423 829 l 1
 423 753 l 1
 335 744 l 1
 316 722 l 1
 493 224 l 1
 688 720 l 1
 674 744 l 1
 587 753 l 1
 587 829 l 1
 911 829 l 1
 911 753 l 1
 812 741 l 1
 519 0 l 1
 365 0 l 1
 92 742 l 1
 -10 753 l 1
 -10 829 l 1
EndSplineSet
Validated: 1
EndChar

StartChar: w
Encoding: 119 119 251
Width: 1363
VWidth: 1706
Flags: W
HStem: 0 21G<315.07 498.623 877.834 1062.29> 753 76<0 101 338 422 1062 1152 1289 1384>
LayerCount: 2
Fore
SplineSet
0 829 m 1
 422 829 l 1
 422 753 l 1
 338 741 l 1
 319 717 l 1
 457 225 l 1
 657 829 l 1
 828 829 l 1
 1014 225 l 1
 1164 719 l 1
 1152 742 l 1
 1062 753 l 1
 1062 829 l 1
 1384 829 l 1
 1384 753 l 1
 1289 741 l 1
 1056 0 l 1
 884 0 l 1
 695 613 l 1
 492 0 l 1
 321 0 l 1
 101 742 l 1
 0 753 l 1
 0 829 l 1
EndSplineSet
Validated: 1
EndChar

StartChar: x
Encoding: 120 120 252
Width: 906
VWidth: 1706
Flags: W
HStem: 0 75<19 52.3474 317.575 350 507 561.309 867.984 906> 753 76<24 81.7566 370 435 560 620.436 808.701 874>
LayerCount: 2
Fore
SplineSet
24 829 m 1
 435 829 l 1
 435 759 l 1
 370 749 l 1
 362 730 l 1
 498 527 l 1
 647 741 l 1
 560 756 l 1
 560 829 l 1
 874 829 l 1
 874 753 l 1
 780 741 l 1
 561 457 l 1
 816 90 l 1
 906 75 l 1
 906 0 l 1
 507 0 l 1
 507 67 l 1
 567 82 l 1
 573 99 l 1
 423 328 l 1
 263 92 l 1
 350 75 l 1
 350 0 l 1
 19 0 l 1
 19 75 l 1
 119 94 l 1
 358 399 l 1
 121 739 l 1
 24 753 l 1
 24 829 l 1
EndSplineSet
Validated: 1
EndChar

StartChar: y
Encoding: 121 121 253
Width: 878
VWidth: 1706
Flags: W
HStem: -374 21G<134 232> 756 73<-7 91.4405 340 427 587 678 827.073 915>
LayerCount: 2
Fore
SplineSet
-7 829 m 1
 427 829 l 1
 427 756 l 1
 340 746 l 1
 323 722 l 1
 507 239 l 1
 693 720 l 1
 678 746 l 1
 587 756 l 1
 587 829 l 1
 915 829 l 1
 915 756 l 1
 823 741 l 1
 493 -60 l 2
 410 -261 288 -374 176 -374 c 0
 92 -374 29 -312 29 -247 c 0
 29 -198 61 -155 118 -126 c 1
 266 -229 l 1
 311 -193 357 -123 399 -20 c 1
 96 741 l 1
 -7 756 l 1
 -7 829 l 1
EndSplineSet
Validated: 1
EndChar

StartChar: z
Encoding: 122 122 254
Width: 844
VWidth: 1706
Flags: W
HStem: 0 96<316 631> 572 257<92 203> 737 92<242 519>
VStem: 92 111<572 690.904> 678 116<172.821 280>
LayerCount: 2
Fore
SplineSet
79 0 m 1xb8
 79 106 l 1
 519 737 l 1
 242 737 l 1xb8
 220 713 l 1
 203 572 l 1
 92 572 l 1
 92 829 l 1xd8
 768 829 l 1
 768 741 l 1
 316 96 l 1
 631 96 l 1
 657 123 l 1
 678 280 l 1
 794 280 l 1
 794 0 l 1
 79 0 l 1xb8
EndSplineSet
Validated: 1
EndChar

StartChar: braceleft
Encoding: 123 123 255
Width: 841
VWidth: 1706
Flags: W
HStem: -230 92<556.609 719> 449 97<79 259.531> 1116 87<560.181 719>
VStem: 312 198<-91.5413 380.788 613.871 1066.55>
LayerCount: 2
Fore
SplineSet
719 1203 m 1
 719 1116 l 1
 550 1111 509 1056 509 903 c 2
 509 795 l 2
 509 616 435 526 261 497 c 1
 432 469 510 377 510 203 c 2
 510 79 l 2
 510 -84 546 -137 719 -138 c 1
 719 -230 l 1
 701 -230 684 -230 667 -230 c 0
 406 -230 312 -150 312 87 c 2
 312 225 l 2
 312 391 263 449 113 449 c 0
 101 449 90 449 79 449 c 1
 79 546 l 1
 90 546 102 546 113 546 c 0
 266 546 312 604 312 765 c 2
 312 908 l 2
 312 1126 418 1203 683 1203 c 0
 719 1203 l 1
EndSplineSet
Validated: 1
EndChar

StartChar: bar
Encoding: 124 124 256
Width: 853
VWidth: 1706
Flags: W
VStem: 353 149<-403 1304>
LayerCount: 2
Fore
SplineSet
502 1304 m 1
 502 -403 l 1
 353 -403 l 1
 353 1304 l 1
 502 1304 l 1
EndSplineSet
Validated: 1
EndChar

StartChar: braceright
Encoding: 125 125 257
Width: 841
VWidth: 1706
Flags: W
HStem: -230 92<106 267.391> 449 95<564.632 746> 1116 87<106 264.172>
VStem: 316 196<-91.5413 380.788 609.146 1065.75>
LayerCount: 2
Fore
SplineSet
106 1203 m 1
 142 1203 l 0
 410 1203 514 1128 514 908 c 2
 514 765 l 2
 514 606 560 544 708 544 c 0
 720 544 732 546 746 546 c 1
 746 449 l 1
 734 449 724 449 712 449 c 0
 561 449 512 391 512 225 c 2
 512 87 l 2
 512 -150 418 -230 157 -230 c 0
 140 -230 123 -230 106 -230 c 1
 106 -138 l 1
 280 -137 316 -82 316 79 c 2
 316 203 l 2
 316 377 393 469 563 497 c 1
 387 527 316 616 316 795 c 2
 316 903 l 2
 316 1058 273 1111 106 1116 c 1
 106 1203 l 1
EndSplineSet
Validated: 1
EndChar

StartChar: asciitilde
Encoding: 126 126 258
Width: 1421
VWidth: 1706
Flags: W
HStem: 382 144<761.211 1136.51> 495 142<296.827 686.091>
LayerCount: 2
Fore
SplineSet
1275 500 m 1x80
 1164 423 1060 382 957 382 c 0x80
 908 382 853 393 799 411 c 0
 681 451 579 495 469 495 c 0
 370 495 270 447 148 362 c 1
 148 517 l 1
 266 597 372 637 471 637 c 0x40
 568 637 645 611 715 587 c 0
 799 558 876 526 959 526 c 0
 1058 526 1159 570 1275 654 c 1
 1275 500 l 1x80
EndSplineSet
Validated: 1
EndChar

StartChar: sterling
Encoding: 163 163 259
Width: 1104
VWidth: 1706
Flags: W
HStem: 0 21G<119 888> 490 181<219.878 283 496 686.691>
VStem: 283 203<304 490 671 784.95>
LayerCount: 2
Fore
SplineSet
283 304 m 1
 283 490 l 1
 143 490 l 1
 163 556 189 614 229 671 c 1
 288 671 l 1
 331 1034 648 1256 1010 1261 c 1
 980 1147 930 1036 860 922 c 1
 673 895 533 908 496 671 c 1
 765 671 l 1
 742 607 716 550 678 490 c 1
 486 490 l 1
 486 304 l 1
 990 304 l 1
 957 195 916 96 860 0 c 1
 119 0 l 1
 150 109 191 210 247 304 c 1
 283 304 l 1
EndSplineSet
Validated: 1
EndChar

